**ABCDEFGHIJKLMNOPQRSTUVWXYZabcdefghijklmnopqrstuvwxyz**************************
**PARASOLID !"#$%&'()*+,-./:;<=>?@[\]^_`{|}~0123456789**************************
**PART1;
MC=unknown;
MC_MODEL=unknown;
MC_ID=unknown;
OS=unknown;
OS_RELEASE=unknown;
FRU=sdl_parasolid_customer_support;
APPL=unknown;
SITE=unknown;
USER=unknown;
FORMAT=text;
GUISE=transmit;
KEY=D:\Tpo v2\SharedFS\Outgoing\boutet_cam_122_466;
FILE=D:\Tpo v2\SharedFS\Outgoing\boutet_cam_122_466.xmt_txt;
DATE=unknown;
**PART2;
SCH=SCH_1300151_13006;
USFLD_SIZE=0;
**PART3;
**END_OF_HEADER*****************************************************************
T51 : TRANSMIT FILE created by modeller version 130015117 SCH_1100000_110040 12
 1 553 0 0 0 0 0 0 1e3 1e-8 0 0 0 1 0 1 1 2 3 4 5 6 7 8 13 2 92 0 1 0 9 0 0 10 0
 51 3 91 0 11 12 0 13 --153075794227797e-32 .019 .008 0 0 -1 .019 -1 0 0 31 4 49
7 0 14 15 0 0 +0 .0185 -.0045 0 0 -1 -1 0 0 .004 29 5 466 0 8 16 0 .088174286490
8709 .028 -495965573298063e-33 19 6 1 0 1 10 0 17 V16 7 460 0 ?18 0 19 15 0 0 1
 18 8 464 0 20 0 21 5 ?1 17 20 0 22 23 24 8 25 26 0 27 -18 21 457 0 28 8 29 16 ?
1 17 28 0 30 31 32 21 18 7 0 24 -18 29 274 0 33 21 34 35 ?1 29 16 459 0 21 35 5
 .0881742864908709 .02395 .00405 29 35 276 0 29 36 16 -.0155884572681199 .009 -.
0045 29 36 99 0 34 37 35 .019 .028 0 18 34 97 0 38 29 39 36 ?1 29 37 24 0 39 40
 36 .019 .019 .008 18 39 21 0 41 34 42 37 ?1 29 40 20 0 42 43 37 .019 .028 .008
 18 42 17 0 44 39 45 40 ?1 29 43 16 0 45 46 40 -177635683940025e-32 .028 .008 18
 45 13 0 47 42 48 43 ?1 29 46 12 0 48 49 43 -.01049742261192856 .028 .008 18 48
 9 0 50 45 51 46 ?1 29 49 8 0 51 52 46 -379627969684937e-32 0 .008 18 51 5 0 53
 48 54 49 ?1 29 52 4 0 54 55 49 -.0155884572681199 .009 .008 18 54 2 0 56 51 57
 52 ?1 29 55 56 0 57 58 52 .019 .019 -.008 18 57 43 0 59 54 60 55 ?1 29 58 57 0
 60 61 55 .019 .028 -.008 18 60 44 0 62 57 63 58 ?1 29 61 58 0 63 64 58 -1776356
83940025e-32 .028 -.008 18 63 45 0 65 60 66 61 ?1 29 64 59 0 66 67 61 -.01049742
261192856 .028 -.008 18 66 46 0 68 63 69 64 ?1 29 67 60 0 69 70 64 -379627969684
937e-32 0 -.008 18 69 47 0 71 66 72 67 ?1 29 70 61 0 72 73 67 -.0155884572681199
 .009 -.008 18 72 48 0 74 69 75 70 ?1 29 73 245 0 75 76 70 .019 .019 -.00405 18
 75 169 0 77 72 78 73 ?1 29 76 246 0 78 79 73 .0180277623104086 .013000017826742
2 -.00405 18 78 167 0 80 75 81 76 ?1 29 79 247 0 81 82 76 .019 .019 .00405 18 81
 180 0 83 78 84 79 ?1 29 82 248 0 84 85 79 .0180277623104086 .0130000178267422 .
00405 18 84 176 0 86 81 87 82 ?1 29 85 249 0 87 88 82 .019 .02395 -.00405 18 87
 170 0 89 84 90 85 ?1 29 88 250 0 90 91 85 .019 .02395 .00405 18 90 181 0 92 87
 93 88 ?1 29 91 258 0 93 94 88 .06 .028 -495965573298063e-33 18 93 172 0 95 90 9
6 91 ?1 29 94 260 0 96 97 91 .06 .02395 -.00405 18 96 168 0 98 93 99 94 ?1 29 97
 261 0 99 100 94 .06 .02395 .00405 18 99 173 0 101 96 102 97 ?1 29 100 432 0 102
 103 97 .006865 .028 0 18 102 368 0 104 99 105 100 ?1 29 103 433 0 105 106 100 -
.0155884572681199 .009 .0045 18 105 373 0 107 102 108 103 ?1 29 106 434 0 108 10
9 103 -379627969684937e-32 0 .0045 18 108 384 0 110 105 111 106 ?1 29 109 435 0
 111 112 106 .01213846995301186 .004382970643806305 .0045 18 111 378 0 113 108 1
14 109 ?1 29 112 436 0 114 115 109 0 .028 .0045 18 114 372 0 116 111 117 112 ?1
 29 115 437 0 117 118 112 -.01049742261192856 .028 .0045 18 117 375 0 119 114 12
0 115 ?1 29 118 439 0 120 121 115 -379627969684937e-32 0 -.0045 18 120 374 0 122
 117 123 118 ?1 29 121 440 0 123 124 118 .01213846995301186 .004382970643806305
 -.0045 18 123 367 0 125 120 126 121 ?1 29 124 441 0 126 127 121 0 .028 -.0045 1
8 126 377 0 128 123 129 124 ?1 29 127 442 0 129 130 124 -.01049742261192856 .028
 -.0045 18 129 369 0 131 126 132 127 ?1 29 130 443 0 132 133 127 .006865 .028 .0
045 18 132 371 0 134 129 135 130 ?1 29 133 447 0 135 136 130 .006865 .028 -.0045
 18 135 376 0 137 132 138 133 ?1 29 136 490 0 138 0 133 .0881742864908709 .02395
 -.00405 18 138 477 0 32 135 0 136 ?1 17 32 0 30 28 139 138 140 141 0 142 +15 30
 461 0 28 143 0 17 139 0 30 32 31 96 144 145 0 0 -17 140 0 146 147 142 96 32 141
 0 139 -16 141 150 0 ?32 148 149 150 0 0 1 17 142 0 146 140 27 138 151 152 0 18
 -15 146 471 0 142 153 0 17 27 0 146 142 147 8 23 149 0 151 +17 151 0 154 25 18
 8 142 152 0 0 +16 152 475 0 ?151 155 26 156 0 0 1 17 18 0 154 151 25 138 28 7 0
 0 +15 154 483 0 18 157 0 17 25 0 154 18 151 21 20 26 0 0 +16 26 476 0 ?25 152 1
58 159 0 0 1 16 158 513 0 ?160 26 161 162 0 0 1 31 159 488 0 26 162 156 0 +.0881
742864908709 .02395 0 1 0 0 0 0 -1 .00405 31 162 542 0 158 163 159 0 +0 .0185 .0
08 0 0 1 1 0 0 .004 31 156 487 0 152 159 164 0 +.0881742864908709 .02395 0 1 0 0
 0 0 -1 .00405 30 164 429 0 165 156 166 0 +.01436757738807144 -.0056 -.0045 -.21
79243433007755 .975965665685492 0 16 165 353 0 ?167 168 169 164 0 0 1 30 166 428
 0 155 164 170 0 +-.017135 .028 -.0045 1 0 0 16 155 348 0 ?171 169 152 166 169 1
69 1 30 170 425 0 172 166 173 0 +.01436757738807144 -.0056 .0045 -.2179243433007
755 .975965665685492 0 16 172 360 0 ?134 174 175 170 0 0 1 30 173 424 0 168 170
 176 0 +-.017135 .028 .0045 1 0 0 16 168 350 0 ?177 175 165 173 175 175 1 30 176
 423 0 178 173 179 0 +.006865 .028 .0045 0 0 -1 16 178 351 0 ?104 180 174 176 17
4 174 1 30 179 419 0 180 176 181 0 +-.0155884572681199 .009 -.0045 -.25881904510
2521 -.965925826289068 0 16 180 366 0 ?33 182 178 179 0 0 1 31 181 418 0 182 179
 183 0 +-153075794227797e-32 .019 -.0045 0 0 -1 -1 0 0 .019 16 182 345 0 ?184 18
5 180 181 0 0 1 30 183 417 0 185 181 186 0 +-.0155884572681199 .009 .0045 -.2588
19045102521 -.965925826289068 0 16 185 344 0 ?187 188 182 183 0 0 1 31 186 416 0
 188 183 189 0 +-153075794227797e-32 .019 .0045 0 0 -1 -1 0 0 .019 16 188 361 0
 ?110 190 185 186 0 0 1 30 189 414 0 190 186 191 0 -.01213846995301184 .00438297
06438063 .008 0 0 -1 16 190 354 0 ?113 192 188 189 0 0 1 30 191 243 0 192 189 19
3 0 +0 .02395 -.00405 1 0 0 16 192 158 0 ?194 195 190 191 0 0 1 30 193 242 0 195
 191 196 0 -0 .02395 .00405 1 0 0 16 195 139 0 ?197 198 192 193 0 0 1 30 196 241
 0 198 193 199 0 +0 .028 -495965573298063e-33 1 0 0 16 198 162 0 ?95 200 195 196
 0 0 1 38 199 238 0 200 196 201 0 -202 203 204 205 206 16 200 137 0 ?207 208 198
 199 0 0 1 30 201 237 0 209 199 210 0 -.1 .02395 .00405 -1 0 0 50 202 224 0 211
 212 213 214 +.05 .01305 .00405 0 1224606353822376e-31 1 -1 0 0 52 203 221 0 215
 213 216 217 +0 .02395 0 -1 0 0 .01495 .1787411315091455 .983896136747589 0 -122
4606353822376e-31 -1 40 17 204 0 1 17 .001196625642018272 .368585331055581 ??-.1
136384898571136 -.0114131661337515 .00405 -.0542352324731487 -.00051984080207559
9 .00405 .0044053259136366 .01039229055675206 .00405 .0279766982180063 .01495186
861385228 .00405 .0514361765371993 .02007416985264795 .00405 .0571758962993154 .
02184788575800485 .00405 .0588889330929756 .0226555209998069 .00405 .05964802212
37006 .0232274876422182 .00405 .0598594746452934 .0234945499174552 .00405 .05998
7403277906 .02381383350868655 .00405 .0599906826876789 .0240671037579577 .00405
 .0599132796766972 .024307571182155 .00405 .0596658838697178 .0246538011823125 .
00405 .0587370946790253 .0253323900662319 .00405 .0540471717087099 .027101044064
81225 .00405 .03470621267752025 .03158768175197665 .00405 -.043186829893898 .046
3829493855738 .00405 41 1 205 L-.1136384898571136 -.0114131661337515 .00405 41 1
 206 L-.043186829893898 .0463829493855738 .00405 14 215 201 0 ?218 219 220 2 203
 +0 0 218 219 17 50 213 223 0 218 202 203 221 +.05 .01305 -.00405 0 -12246063538
22376e-31 -1 1 0 0 51 216 220 0 143 203 222 0 +.1 .02395 0 -1 0 0 .00405 0 -1224
606353822376e-31 -1 141 217 199 223 224 203 141 223 225 224 217 203 141 224 226
 217 223 203 38 226 235 0 208 210 150 0 +203 213 227 228 229 16 208 147 0 ?98 23
0 200 226 0 0 1 30 210 236 0 149 201 226 0 -.1 .028 -495965573298063e-33 -1 0 0
 30 150 234 0 141 226 231 0 -.1 .02395 -.00405 -1 0 0 40 17 227 0 1 17 .00119662
5642018272 .368585331055581 ??-.1136384898571136 -.0114131661337515 -.00405 -.05
42352324731487 -.000519840802075599 -.00405 .0044053259136366 .01039229055675206
 -.00405 .0279766982180063 .01495186861385228 -.00405 .0514361765371993 .0200741
6985264795 -.00405 .0571758962993154 .02184788575800485 -.00405 .058888933092975
6 .02265552099980685 -.00405 .0596480221237006 .0232274876422182 -.00405 .059859
4746452934 .0234945499174552 -.00405 .059987403277906 .02381383350868655 -.00405
 .0599906826876789 .0240671037579577 -.00405 .0599132796766972 .024307571182155
 -.00405 .0596658838697178 .0246538011823125 -.00405 .0587370946790253 .02533239
00662319 -.00405 .0540471717087099 .02710104406481225 -.00405 .03470621267752025
 .03158768175197665 -.00405 -.043186829893898 .0463829493855738 -.00405 41 1 228
 L-.1136384898571136 -.0114131661337515 -.00405 41 1 229 L-.043186829893898 .046
3829493855738 -.00405 31 231 232 0 145 150 232 0 +.06 .02395 0 -1 0 0 0 -1224606
353822376e-31 -1 .00405 16 145 136 0 ?144 209 233 231 230 233 1 31 232 229 0 148
 231 234 0 +.019 .02395 0 -1 0 0 0 0 1 .00405 16 148 165 0 ?235 236 141 232 0 0
 1 31 234 228 0 236 232 237 0 +.019 .02395 0 -1 0 0 0 0 1 .00405 16 236 163 0 ?2
38 239 148 234 0 0 1 31 237 227 0 239 234 240 0 +-153075794227797e-32 .019 .0040
5 0 1224606353822376e-31 1 0 -1 1224606353822376e-31 .019 16 239 159 0 ?241 242
 236 237 0 0 1 31 240 226 0 242 237 243 0 +-153075794227797e-32 .019 -.00405 0 -
1224606353822376e-31 -1 0 1 -1224606353822376e-31 .019 16 242 157 0 ?244 245 239
 240 0 0 1 31 243 55 0 246 240 247 0 +-159198825996909e-32 .018 -.008 0 0 1 0 1
 0 .018 16 246 37 0 ?248 249 250 243 0 0 1 30 247 54 0 250 243 251 0 +-.01558845
72681199 .009 -.008 .258819045102521 .965925826289068 0 16 250 38 0 ?252 246 253
 247 0 0 1 30 251 53 0 253 247 254 0 +-.01049742261192856 .028 -.008 1 338436758
2537295e-31 0 16 253 39 0 ?255 250 256 251 0 0 1 30 254 52 0 256 251 257 0 +-979
685083057902e-33 .028 -.008 1 0 0 16 256 40 0 ?258 253 259 254 0 0 1 30 257 51 0
 259 254 260 0 +.019 .019 -.008 0 1 0 16 259 41 0 ?261 256 245 257 0 0 1 31 260
 50 0 245 257 262 0 +-153075794227797e-32 .019 -.008 0 0 1 0 1 0 .019 16 245 42
 0 ?263 259 242 260 0 0 1 31 262 7 0 264 260 265 0 +-159198825996909e-32 .018 .0
08 0 0 1 0 1 0 .018 16 264 6 0 ?53 266 267 262 0 0 1 30 265 11 0 267 262 268 0 +
-.0155884572681199 .009 .008 .258819045102521 .965925826289068 0 16 267 10 0 ?26
9 264 270 265 0 0 1 30 268 15 0 270 265 271 0 +-.01049742261192856 .028 .008 1 3
384367582537295e-31 0 16 270 14 0 ?272 267 273 268 0 0 1 30 271 19 0 273 268 274
 0 +-979685083057902e-33 .028 .008 1 0 0 16 273 18 0 ?275 270 276 271 0 0 1 30 2
74 23 0 276 271 277 0 +.019 .019 .008 0 1 0 16 276 22 0 ?44 273 249 274 0 0 1 31
 277 26 0 249 274 278 0 +-153075794227797e-32 .019 .008 0 0 1 0 1 0 .019 16 249
 25 0 ?279 276 246 277 0 0 1 30 278 80 0 280 277 281 0 +.019 .019 .008 0 0 -1 16
 280 62 0 ?282 283 284 278 284 284 1 30 281 81 0 285 278 286 0 +.019 .028 .008 0
 0 -1 16 285 63 0 ?287 284 288 281 288 288 1 30 286 82 0 289 281 290 0 +-1776356
83940025e-32 .028 .008 0 0 -1 16 289 64 0 ?291 288 292 286 292 292 1 30 290 83 0
 293 286 294 0 +-.01049742261192856 .028 .008 0 0 -1 16 293 65 0 ?295 292 296 29
0 296 296 1 30 294 84 0 297 290 298 0 +-379627969684937e-32 0 .008 0 0 -1 16 297
 66 0 ?299 300 266 294 266 266 1 30 298 85 0 301 294 302 0 +-.0155884572681199 .
009 .008 0 0 -1 16 301 67 0 ?303 296 300 298 300 300 1 30 302 102 0 283 298 304
 0 +0 .028 0 1 0 0 16 283 100 0 ?38 305 280 302 0 0 1 30 304 118 0 305 302 306 0
 +.019 .019 .00405 0 1 -1224606353822376e-31 16 305 116 0 ?307 308 283 304 0 0 1
 30 306 122 0 308 304 225 0 +.019 .019 -.00405 0 -1 1224606353822376e-31 16 308
 120 0 ?309 310 305 306 0 0 1 38 225 130 0 310 306 311 0 +3 203 312 313 314 16 3
10 128 0 ?315 316 308 225 0 0 1 31 311 279 0 316 225 317 0 +-159198825996909e-32
 .018 -.0045 0 0 -1 -1 0 0 .018 40 4 312 0 1 4 .000604414428925798 .342180837528
739 ??.0180277623367246 .0130000179058122 -.0040500002 .0177578005660678 .012242
74322999624 -.000626342313684155 .01789285904041405 .01260894411228682 .00287365
757499491 .0180277623367246 .0130000179058122 .0040500002 41 1 313 L.01802776233
67246 .0130000179058122 -.0040500002 41 1 314 L.0180277623367246 .01300001790581
22 .0040500002 16 316 277 0 ?318 19 310 311 0 0 1 31 317 283 0 19 311 15 0 +-159
198825996909e-32 .018 .0045 0 0 -1 -1 0 0 .018 16 19 281 0 ?107 7 316 317 0 0 1
 31 15 462 0 7 317 4 0 +.0881742864908709 .02395 0 1 0 0 0 0 -1 .00405 17 107 0
 319 119 110 105 320 19 0 187 +15 319 391 0 110 321 0 17 119 0 319 116 107 117 1
87 185 0 322 -17 110 0 319 107 323 108 324 188 0 320 +17 320 0 325 326 303 108 1
07 19 0 299 -17 187 0 327 56 295 105 119 185 0 303 +15 327 70 0 295 328 0 17 56
 0 327 269 187 54 303 301 0 329 -17 295 0 327 187 269 117 50 293 0 0 +17 303 0 3
25 320 329 105 56 301 0 0 +15 325 282 0 320 330 0 17 329 0 325 303 326 54 53 264
 0 331 -17 326 0 325 329 320 51 299 297 0 332 -17 53 0 333 279 331 51 329 264 0
 326 +17 331 0 333 53 334 54 269 267 0 0 -15 333 27 0 279 335 0 17 334 0 333 331
 336 48 272 270 0 269 -17 269 0 327 295 56 48 331 267 0 0 +17 336 0 333 334 44 4
5 275 273 0 272 -17 272 0 337 291 50 45 334 270 0 0 +15 337 72 0 291 338 0 17 29
1 0 337 322 272 114 47 289 0 0 +17 50 0 337 272 322 48 295 293 0 334 -17 322 0 3
37 50 291 117 116 175 0 295 -17 116 0 319 177 119 114 322 175 0 339 +16 175 341
 0 ?116 172 168 173 168 168 1 17 177 0 319 323 116 132 339 168 0 340 +17 339 0 3
41 47 340 114 177 168 0 291 -15 341 101 0 342 343 0 17 47 0 341 275 339 45 291 2
89 0 336 -17 340 0 341 339 342 132 104 178 0 0 -17 342 0 341 340 287 102 38 283
 0 0 -17 104 0 344 137 134 102 340 178 0 345 +15 344 387 0 113 346 0 17 137 0 34
4 347 104 135 345 174 0 167 +17 134 0 344 104 113 132 323 172 0 177 +17 345 0 34
8 38 171 102 137 174 0 342 -15 348 74 0 171 9 0 17 38 0 348 62 345 34 342 283 0
 349 +17 171 0 348 345 350 135 128 155 0 0 +16 174 352 0 ?137 178 172 176 178 17
8 1 17 350 0 348 171 351 126 65 292 0 0 -17 128 0 352 131 167 126 171 155 0 353
 -15 352 393 0 167 354 0 17 131 0 352 33 128 129 353 169 0 355 -17 167 0 352 128
 125 135 347 165 0 171 +17 353 0 356 65 357 126 131 169 0 350 +15 356 304 0 353
 358 0 17 65 0 356 359 353 63 350 292 0 351 +17 357 0 356 353 359 129 68 296 0 0
 -16 169 365 0 ?353 165 155 166 155 155 1 17 359 0 356 357 65 66 255 253 0 252 -
17 68 0 360 361 355 66 357 296 0 359 +16 296 289 0 ?68 293 301 290 293 293 1 15
 360 292 0 355 362 0 17 361 0 360 363 68 72 252 250 0 0 -17 355 0 360 68 363 129
 33 180 0 357 -17 363 0 360 355 361 29 74 300 0 0 -17 33 0 352 122 131 29 355 18
0 0 318 +17 122 0 352 125 33 120 318 316 0 184 -17 318 0 364 74 365 29 122 316 0
 363 +15 364 68 0 365 366 0 17 74 0 364 248 318 72 363 300 0 367 +17 365 0 364 3
18 248 120 71 266 0 0 -17 248 0 364 365 74 69 367 246 0 368 +17 71 0 369 263 184
 69 365 266 0 248 +16 266 269 0 ?71 297 264 294 297 297 1 15 369 329 0 324 11 0
 17 263 0 369 370 71 57 368 245 0 0 +17 184 0 369 71 371 120 125 182 0 365 +17 3
71 0 369 184 324 123 113 190 0 0 -17 125 0 352 167 122 123 184 182 0 347 -17 347
 0 344 113 137 123 167 165 0 371 -17 113 0 344 134 347 111 371 190 0 323 +17 323
 0 319 110 177 111 134 172 0 324 -17 324 0 369 371 299 111 110 188 0 0 -17 299 0
 369 324 332 108 326 297 0 0 +17 332 0 369 299 372 51 279 249 0 0 -17 372 0 369
 332 241 39 282 280 0 0 -17 279 0 333 44 53 39 332 249 0 372 +17 44 0 333 336 27
9 42 41 276 0 373 +17 41 0 374 282 373 39 44 276 0 279 -17 373 0 374 41 235 42 2
87 285 0 275 -15 374 76 0 282 375 0 17 235 0 374 373 307 34 92 148 0 376 +17 287
 0 341 342 275 34 373 285 0 0 +17 275 0 341 287 47 42 336 273 0 0 +17 307 0 374
 235 282 90 83 305 0 0 +17 92 0 377 101 349 90 235 148 0 197 -17 376 0 378 238 2
61 34 62 288 0 287 -15 378 117 0 238 379 0 17 238 0 378 309 376 87 380 236 0 0 +
17 261 0 378 376 59 60 381 259 0 258 +17 62 0 348 351 38 60 376 288 0 261 +16 28
8 98 0 ?62 285 289 281 285 285 1 17 351 0 348 350 62 63 258 256 0 255 -17 258 0
 382 381 255 60 351 256 0 0 +17 255 0 382 258 252 63 359 253 0 0 +15 382 36 0 36
8 219 0 17 252 0 382 255 367 66 361 250 0 0 +17 367 0 382 252 368 72 248 246 0 3
61 -17 368 0 382 367 381 69 263 245 0 0 -17 381 0 382 368 258 57 261 259 0 263 -
14 219 35 0 ?215 335 383 2 222 -0 0 215 335 17 14 335 28 0 ?219 366 384 2 385 +0
 0 219 366 17 15 383 504 0 386 219 382 50 222 49 0 219 216 385 0 +-1530757942277
97e-32 .019 -.008 0 0 1 1 0 0 13 17 3 0 0 0 0 0 0 6 9 14 9 103 0 ?11 0 348 2 387
 +343 343 11 0 17 14 11 79 0 ?343 9 369 2 3 -0 0 343 9 17 50 387 89 0 9 388 12 0
 +-979685083057902e-33 .028 .008 0 1 0 0 0 1 14 343 75 0 ?338 11 341 2 387 +9 9
 338 11 17 14 338 310 0 ?328 343 337 2 388 +358 358 328 343 17 14 328 296 0 ?330
 338 327 2 389 +362 362 330 338 17 50 388 88 0 358 389 387 0 +-.0104974226119285
6 .028 .008 -3384367582537295e-31 1 0 -1 -3384367582537295e-31 0 14 358 73 0 ?36
2 375 356 2 388 +338 338 362 375 17 14 362 71 0 ?366 358 360 2 389 +328 328 366
 358 17 14 375 77 0 ?358 379 374 2 12 -379 379 358 379 17 14 379 119 0 ?375 330
 378 2 12 -375 375 375 330 17 50 12 90 0 375 387 3 0 +.019 .019 .008 -1 0 0 0 0
 1 14 330 284 0 ?379 328 325 2 390 -366 366 379 328 17 51 390 86 0 366 385 389 0
 --159198825996909e-32 .018 .008 0 0 -1 .018 -1 0 0 14 366 69 0 ?335 362 364 2 3
90 -330 330 335 362 17 50 385 29 0 335 222 390 0 +-153075794227797e-32 .019 .008
 0 0 1 1 0 0 50 389 87 0 362 390 388 0 +-.0155884572681199 .009 .008 -.965925826
289068 .258819045102521 0 -.258819045102521 -.965925826289068 0 17 386 0 383 386
 386 0 391 161 0 0 +17 391 0 392 391 391 0 386 161 0 0 -16 161 515 0 ?386 158 39
3 163 0 0 1 16 393 516 0 ?394 161 14 395 0 0 1 31 163 543 0 161 395 162 0 +0 .01
85 -.008 0 0 1 1 0 0 .004 31 395 544 0 393 0 163 0 +0 .0185 .0045 0 0 -1 -1 0 0
 .004 17 394 0 396 394 394 0 397 393 0 0 +16 14 514 0 ?398 393 0 4 0 0 1 17 398
 0 399 398 398 0 400 14 0 0 +15 399 495 0 398 354 352 17 400 0 401 400 400 0 398
 14 0 0 -15 401 522 0 400 402 392 14 402 521 0 ?403 157 401 2 404 -403 403 403 1
57 17 15 392 523 0 391 402 0 14 403 534 0 ?0 402 405 2 404 -402 402 0 402 17 14
 157 482 0 ?402 354 154 2 406 +0 0 402 354 17 51 404 539 0 403 0 406 0 +0 .0185
 -.0096 0 0 1 .004 0 1 0 53 406 486 0 157 404 407 0 +.1 .02395 0 .0125 0 0 1 1 0
 0 50 407 413 0 354 406 408 0 +-.017135 .028 -.0045 0 0 -1 -1 0 0 14 354 404 0 ?
157 321 399 2 407 -0 0 157 321 17 50 408 412 0 321 407 409 0 +-.017135 .028 .004
5 0 0 -1 -1 0 0 14 321 402 0 ?354 346 410 2 408 +0 0 354 346 17 50 409 409 0 346
 408 212 0 +.01436757738807144 -.0056 .0045 -.975965665685492 -.2179243433007755
 0 .2179243433007755 -.975965665685492 0 14 346 396 0 ?321 143 344 2 409 +0 0 32
1 143 17 51 212 225 0 411 409 202 0 +0 .02395 0 1 0 0 .00405 0 1 -12246063538223
76e-31 14 411 213 0 ?412 211 413 2 212 +412 412 412 211 17 14 412 215 0 ?153 411
 377 2 212 +411 411 153 411 17 14 211 211 0 ?411 218 414 2 202 +0 0 411 218 17 1
5 413 192 0 380 411 0 17 380 0 413 95 415 34 238 236 0 235 -17 95 0 413 416 380
 93 349 198 0 417 +17 415 0 413 380 416 87 194 192 0 238 -17 416 0 413 415 95 96
 147 230 0 140 +17 194 0 418 419 89 96 415 192 0 416 +15 418 188 0 77 218 0 17 4
19 0 418 77 194 78 98 208 0 244 -17 89 0 418 194 77 87 309 308 0 415 -17 77 0 41
8 89 419 75 244 242 0 309 -17 309 0 378 59 238 75 89 308 0 370 +17 59 0 378 261
 309 57 370 284 0 381 +17 370 0 369 244 263 75 59 284 0 0 -17 244 0 369 315 370
 78 77 242 0 0 +16 284 108 0 ?59 280 285 278 280 280 1 17 315 0 369 241 244 84 8
0 310 0 0 +17 241 0 369 372 315 81 86 239 0 282 +17 80 0 220 98 207 78 315 310 0
 419 -15 220 186 0 80 215 0 17 98 0 220 144 80 96 419 208 0 194 +17 207 0 220 80
 144 84 420 200 0 315 +17 144 0 220 207 98 99 139 145 0 0 +17 420 0 414 197 86 9
9 207 200 0 31 -15 414 190 0 86 211 0 17 197 0 414 83 420 90 101 195 0 307 +17 8
6 0 414 420 83 84 241 239 0 207 -17 31 0 30 139 28 99 24 209 0 421 -17 24 0 22 2
0 421 21 31 209 0 25 +16 209 145 0 ?24 149 145 201 0 0 1 17 421 0 22 24 23 99 41
7 233 0 144 -15 22 468 0 20 422 0 17 23 0 22 421 20 93 27 149 0 147 -17 417 0 37
7 349 101 93 421 233 0 23 +16 233 142 0 ?417 145 230 231 145 230 1 16 230 141 0
 ?416 233 208 231 233 145 1 15 377 194 0 92 412 0 17 349 0 377 92 417 34 95 198
 0 380 -17 101 0 377 417 92 99 197 195 0 420 -16 149 143 0 ?27 141 209 210 0 0 1
 17 147 0 146 27 140 93 416 230 0 0 -14 422 199 0 ?143 153 22 2 216 +143 153 143
 153 17 14 143 205 0 ?346 422 30 2 216 +153 422 346 422 17 14 153 197 0 ?422 412
 146 2 216 +422 143 422 412 17 17 83 0 414 86 197 81 307 305 0 241 -17 282 0 374
 307 41 81 372 280 0 0 +14 218 209 0 ?211 215 418 2 213 +0 0 211 215 17 15 410 5
01 0 397 321 319 17 397 0 410 397 397 0 394 393 0 0 -15 405 535 0 160 403 396 17
 160 0 405 160 160 0 423 158 0 0 +15 396 536 0 394 403 0 17 423 0 384 423 423 0
 160 158 0 0 -15 384 509 0 423 335 333 16 300 275 0 ?74 301 297 298 301 301 1 16
 292 95 0 ?65 289 293 286 289 289 1 141 221 226 221 221 213 141 214 199 214 214
 202 19 10 93 0 1 0 6 2 S141 13 225 13 13 3 1 0 
