solid C:\Documents and Settings\helano\Desktop\saltel\drexel\a003.stl created by CtrlView V3.00
facet normal 0.900781 0.433486 0.0261565
outer loop
vertex -0.0168045 -0.039953 -0.558116
vertex -0.0149425 -0.0436018 -0.561769
vertex -0.0148181 -0.0402031 -0.622379
endloop
endfacet
facet normal 0.956326 0.290918 0.0284283
outer loop
vertex -0.0156147 -0.0373558 -0.624719
vertex -0.0168045 -0.039953 -0.558116
vertex -0.0148181 -0.0402031 -0.622379
endloop
endfacet
facet normal 0.981614 0.189245 0.0249153
outer loop
vertex -0.0156147 -0.0373558 -0.624719
vertex -0.0174054 -0.0364592 -0.560979
vertex -0.0168045 -0.039953 -0.558116
endloop
endfacet
facet normal 0.994752 0.0988129 0.0265564
outer loop
vertex -0.0156147 -0.0373558 -0.624719
vertex -0.0158442 -0.0343953 -0.627138
vertex -0.0174054 -0.0364592 -0.560979
endloop
endfacet
facet normal 0.99877 -0.0443495 0.0221851
outer loop
vertex -0.0174054 -0.0364592 -0.560979
vertex -0.0158442 -0.0343953 -0.627138
vertex -0.0171833 -0.0329041 -0.563871
endloop
endfacet
facet normal 0.994972 -0.0973898 0.0233549
outer loop
vertex -0.0171833 -0.0329041 -0.563871
vertex -0.0158442 -0.0343953 -0.627138
vertex -0.0154979 -0.0314341 -0.629543
endloop
endfacet
facet normal 0.95679 -0.290163 0.0189258
outer loop
vertex -0.0161501 -0.0294816 -0.566636
vertex -0.0154979 -0.0314341 -0.629543
vertex -0.0145889 -0.0285867 -0.631842
endloop
endfacet
facet normal 0.881776 -0.471441 0.0146419
outer loop
vertex -0.0131506 -0.0259619 -0.633947
vertex -0.0161501 -0.0294816 -0.566636
vertex -0.0145889 -0.0285867 -0.631842
endloop
endfacet
facet normal 0.870715 -0.491614 0.0130941
outer loop
vertex -0.0131506 -0.0259619 -0.633947
vertex -0.0143624 -0.0263815 -0.56912
vertex -0.0161501 -0.0294816 -0.566636
endloop
endfacet
facet normal 0.773323 -0.633928 0.0103524
outer loop
vertex -0.0131506 -0.0259619 -0.633947
vertex -0.0112407 -0.0236619 -0.635776
vertex -0.0143624 -0.0263815 -0.56912
endloop
endfacet
facet normal 0.732325 -0.680924 0.00651493
outer loop
vertex -0.0143624 -0.0263815 -0.56912
vertex -0.0112407 -0.0236619 -0.635776
vertex -0.0119186 -0.023773 -0.571187
endloop
endfacet
facet normal 0.634872 -0.772599 0.00533442
outer loop
vertex -0.0119186 -0.023773 -0.571187
vertex -0.0112407 -0.0236619 -0.635776
vertex -0.00893116 -0.0217743 -0.637258
endloop
endfacet
facet normal 0.471863 -0.881672 -0.000199411
outer loop
vertex -0.00895359 -0.0218009 -0.572723
vertex -0.00893116 -0.0217743 -0.637258
vertex -0.00631125 -0.0203719 -0.638338
endloop
endfacet
facet normal 0.290042 -0.956995 -0.00600401
outer loop
vertex -0.00732599 -0.0210877 -0.573265
vertex -0.00631125 -0.0203719 -0.638338
vertex -0.0056303 -0.0205714 -0.573644
endloop
endfacet
facet normal 0.400274 -0.916387 -0.00383839
outer loop
vertex -0.00732599 -0.0210877 -0.573265
vertex -0.00895359 -0.0218009 -0.572723
vertex -0.00631125 -0.0203719 -0.638338
endloop
endfacet
facet normal 0.791645 0.610346 0.0278492
outer loop
vertex -0.0149425 -0.0436018 -0.561769
vertex -0.0135727 -0.0453079 -0.563316
vertex -0.0134833 -0.042828 -0.620207
endloop
endfacet
facet normal 0.881376 0.47157 0.0282522
outer loop
vertex -0.0148181 -0.0402031 -0.622379
vertex -0.0149425 -0.0436018 -0.561769
vertex -0.0134833 -0.042828 -0.620207
endloop
endfacet
facet normal 0.692633 0.720806 0.0264055
outer loop
vertex -0.0135727 -0.0453079 -0.563316
vertex -0.0119145 -0.0468533 -0.564626
vertex -0.0116642 -0.045128 -0.618288
endloop
endfacet
facet normal 0.77214 0.634796 0.0288843
outer loop
vertex -0.0134833 -0.042828 -0.620207
vertex -0.0135727 -0.0453079 -0.563316
vertex -0.0116642 -0.045128 -0.618288
endloop
endfacet
facet normal 0.571726 0.820072 0.0247334
outer loop
vertex -0.0119145 -0.0468533 -0.564626
vertex -0.00988535 -0.0482349 -0.565722
vertex -0.00942915 -0.0470156 -0.616695
endloop
endfacet
facet normal 0.633329 0.773383 0.0278193
outer loop
vertex -0.0116642 -0.045128 -0.618288
vertex -0.0119145 -0.0468533 -0.564626
vertex -0.00942915 -0.0470156 -0.616695
endloop
endfacet
facet normal 0.425896 0.904492 0.0225229
outer loop
vertex -0.00988535 -0.0482349 -0.565722
vertex -0.00751404 -0.0493313 -0.566532
vertex -0.00686457 -0.048418 -0.61549
endloop
endfacet
facet normal 0.470451 0.882063 0.0253098
outer loop
vertex -0.00942915 -0.0470156 -0.616695
vertex -0.00988535 -0.0482349 -0.565722
vertex -0.00686457 -0.048418 -0.61549
endloop
endfacet
facet normal 0.261996 0.964867 0.0197316
outer loop
vertex -0.00751404 -0.0493313 -0.566532
vertex -0.004929 -0.0500237 -0.566998
vertex -0.00406843 -0.0492815 -0.614718
endloop
endfacet
facet normal 0.289527 0.956924 0.021692
outer loop
vertex -0.00686457 -0.048418 -0.61549
vertex -0.00751404 -0.0493313 -0.566532
vertex -0.00406843 -0.0492815 -0.614718
endloop
endfacet
facet normal 0.0875626 0.996023 0.0164327
outer loop
vertex -0.004929 -0.0500237 -0.566998
vertex -0.00229459 -0.0502535 -0.567107
vertex -0.00114906 -0.0495738 -0.614409
endloop
endfacet
facet normal 0.097805 0.995056 0.0172401
outer loop
vertex -0.00406843 -0.0492815 -0.614718
vertex -0.004929 -0.0500237 -0.566998
vertex -0.00114906 -0.0495738 -0.614409
endloop
endfacet
facet normal -0.0882536 0.996024 0.0121749
outer loop
vertex -0.00229459 -0.0502535 -0.567107
vertex 0.000331458 -0.0500237 -0.566871
vertex -0.00114906 -0.0495738 -0.614409
endloop
endfacet
facet normal -0.098522 0.995057 0.0124856
outer loop
vertex -0.00114906 -0.0495738 -0.614409
vertex 0.000331458 -0.0500237 -0.566871
vertex 0.00178185 -0.0492815 -0.614577
endloop
endfacet
facet normal -0.262645 0.964867 0.00702609
outer loop
vertex 0.00178185 -0.0492815 -0.614577
vertex 0.000331458 -0.0500237 -0.566871
vertex 0.00289091 -0.0493313 -0.56628
endloop
endfacet
facet normal -0.426488 0.904491 0.0018806
outer loop
vertex 0.00461206 -0.048418 -0.615212
vertex 0.00289091 -0.0493313 -0.56628
vertex 0.00522022 -0.0482349 -0.565356
endloop
endfacet
facet normal -0.572255 0.82007 -0.00297087
outer loop
vertex 0.00723197 -0.0470156 -0.616292
vertex 0.00522022 -0.0482349 -0.565356
vertex 0.00719393 -0.0468533 -0.564164
endloop
endfacet
facet normal -0.6931 0.720806 -0.00715388
outer loop
vertex 0.00954154 -0.045128 -0.617774
vertex 0.00719393 -0.0468533 -0.564164
vertex 0.00878676 -0.0453079 -0.562774
endloop
endfacet
facet normal -0.79206 0.610353 -0.0105041
outer loop
vertex 0.0114514 -0.042828 -0.619603
vertex 0.00878676 -0.0453079 -0.562774
vertex 0.0100801 -0.0436018 -0.561163
endloop
endfacet
facet normal -0.900989 0.433489 -0.0174781
outer loop
vertex 0.0128898 -0.0402031 -0.621708
vertex 0.0100801 -0.0436018 -0.561163
vertex 0.0117631 -0.039953 -0.557424
endloop
endfacet
facet normal -0.981674 0.189219 -0.0226312
outer loop
vertex 0.0137987 -0.0373558 -0.624007
vertex 0.0117631 -0.039953 -0.557424
vertex 0.0125018 -0.0364592 -0.560255
endloop
endfacet
facet normal -0.998673 -0.0443341 -0.0261884
outer loop
vertex 0.014145 -0.0343953 -0.626411
vertex 0.0125018 -0.0364592 -0.560255
vertex 0.01242 -0.0329041 -0.563154
endloop
endfacet
facet normal -0.960968 -0.275236 -0.0280421
outer loop
vertex 0.0139155 -0.0314341 -0.628831
vertex 0.01242 -0.0329041 -0.563154
vertex 0.0115218 -0.0294816 -0.565966
endloop
endfacet
facet normal -0.88144 -0.471462 -0.0280601
outer loop
vertex 0.0131189 -0.0285867 -0.631171
vertex 0.0115218 -0.0294816 -0.565966
vertex 0.0117841 -0.0259619 -0.633343
endloop
endfacet
facet normal -0.95659 -0.290146 -0.0274123
outer loop
vertex 0.0131189 -0.0285867 -0.631171
vertex 0.0139155 -0.0314341 -0.628831
vertex 0.0115218 -0.0294816 -0.565966
endloop
endfacet
facet normal -0.870338 -0.491595 -0.0290686
outer loop
vertex 0.0115218 -0.0294816 -0.565966
vertex 0.0098565 -0.0263815 -0.568533
vertex 0.0117841 -0.0259619 -0.633343
endloop
endfacet
facet normal -0.772932 -0.63391 -0.0270929
outer loop
vertex 0.0117841 -0.0259619 -0.633343
vertex 0.0098565 -0.0263815 -0.568533
vertex 0.00996505 -0.0236619 -0.635262
endloop
endfacet
facet normal -0.731787 -0.680919 -0.0289419
outer loop
vertex 0.00996505 -0.0236619 -0.635262
vertex 0.0098565 -0.0263815 -0.568533
vertex 0.00751566 -0.023773 -0.570716
endloop
endfacet
facet normal -0.553092 -0.832684 -0.0269556
outer loop
vertex 0.00772996 -0.0217743 -0.636855
vertex 0.00751566 -0.023773 -0.570716
vertex 0.00462843 -0.0218009 -0.572394
endloop
endfacet
facet normal -0.39962 -0.916387 -0.0232098
outer loop
vertex 0.00516538 -0.0203719 -0.63806
vertex 0.00462843 -0.0218009 -0.572394
vertex 0.00302897 -0.0210877 -0.573014
endloop
endfacet
facet normal -0.289414 -0.956994 -0.0200369
outer loop
vertex 0.00135365 -0.0205714 -0.573475
vertex 0.00516538 -0.0203719 -0.63806
vertex 0.00302897 -0.0210877 -0.573014
endloop
endfacet
facet normal -0.289948 -0.956832 -0.020068
outer loop
vertex 0.00135365 -0.0205714 -0.573475
vertex 0.00236925 -0.0195084 -0.638832
vertex 0.00516538 -0.0203719 -0.63806
endloop
endfacet
facet normal -0.174722 -0.98444 -0.0187265
outer loop
vertex 0.00135365 -0.0205714 -0.573475
vertex -0.000374675 -0.020259 -0.573772
vertex 0.00236925 -0.0195084 -0.638832
endloop
endfacet
facet normal -0.097977 -0.995066 -0.0156124
outer loop
vertex 0.00236925 -0.0195084 -0.638832
vertex -0.000374675 -0.020259 -0.573772
vertex -0.00055013 -0.0192161 -0.639141
endloop
endfacet
facet normal -0.0583856 -0.99817 -0.0157681
outer loop
vertex -0.00055013 -0.0192161 -0.639141
vertex -0.000374675 -0.020259 -0.573772
vertex -0.0021301 -0.0201543 -0.5739
endloop
endfacet
facet normal 0.0590803 -0.99817 -0.0129234
outer loop
vertex -0.00388964 -0.020259 -0.573857
vertex -0.00055013 -0.0192161 -0.639141
vertex -0.0021301 -0.0201543 -0.5739
endloop
endfacet
facet normal 0.0986158 -0.995066 -0.0108515
outer loop
vertex -0.00388964 -0.020259 -0.573857
vertex -0.00348104 -0.0195084 -0.638973
vertex -0.00055013 -0.0192161 -0.639141
endloop
endfacet
facet normal 0.175425 -0.984439 -0.010247
outer loop
vertex -0.00388964 -0.020259 -0.573857
vertex -0.0056303 -0.0205714 -0.573644
vertex -0.00348104 -0.0195084 -0.638973
endloop
endfacet
facet normal 0.290583 -0.956831 -0.00600919
outer loop
vertex -0.00348104 -0.0195084 -0.638973
vertex -0.0056303 -0.0205714 -0.573644
vertex -0.00631125 -0.0203719 -0.638338
endloop
endfacet
facet normal 0.553757 -0.832679 -0.000150753
outer loop
vertex -0.00895359 -0.0218009 -0.572723
vertex -0.0119186 -0.023773 -0.571187
vertex -0.00893116 -0.0217743 -0.637258
endloop
endfacet
facet normal 0.961203 -0.27522 0.0185077
outer loop
vertex -0.0161501 -0.0294816 -0.566636
vertex -0.0171833 -0.0329041 -0.563871
vertex -0.0154979 -0.0314341 -0.629543
endloop
endfacet
facet normal -0.471302 -0.881671 -0.0230404
outer loop
vertex 0.00516538 -0.0203719 -0.63806
vertex 0.00772996 -0.0217743 -0.636855
vertex 0.00462843 -0.0218009 -0.572394
endloop
endfacet
facet normal -0.634381 -0.772603 -0.0254033
outer loop
vertex 0.00772996 -0.0217743 -0.636855
vertex 0.00996505 -0.0236619 -0.635262
vertex 0.00751566 -0.023773 -0.570716
endloop
endfacet
facet normal -0.994935 -0.0974063 -0.0248353
outer loop
vertex 0.014145 -0.0343953 -0.626411
vertex 0.01242 -0.0329041 -0.563154
vertex 0.0139155 -0.0314341 -0.628831
endloop
endfacet
facet normal -0.994871 0.0988107 -0.0216282
outer loop
vertex 0.0125018 -0.0364592 -0.560255
vertex 0.014145 -0.0343953 -0.626411
vertex 0.0137987 -0.0373558 -0.624007
endloop
endfacet
facet normal -0.956585 0.290905 -0.0178978
outer loop
vertex 0.0137987 -0.0373558 -0.624007
vertex 0.0128898 -0.0402031 -0.621708
vertex 0.0117631 -0.039953 -0.557424
endloop
endfacet
facet normal -0.881707 0.471576 -0.0144453
outer loop
vertex 0.0128898 -0.0402031 -0.621708
vertex 0.0114514 -0.042828 -0.619603
vertex 0.0100801 -0.0436018 -0.561163
endloop
endfacet
facet normal -0.772634 0.634795 -0.00852669
outer loop
vertex 0.0114514 -0.042828 -0.619603
vertex 0.00954154 -0.045128 -0.617774
vertex 0.00878676 -0.0453079 -0.562774
endloop
endfacet
facet normal -0.633928 0.773387 -0.00287053
outer loop
vertex 0.00954154 -0.045128 -0.617774
vertex 0.00723197 -0.0470156 -0.616292
vertex 0.00719393 -0.0468533 -0.564164
endloop
endfacet
facet normal -0.471123 0.882064 0.00250743
outer loop
vertex 0.00723197 -0.0470156 -0.616292
vertex 0.00461206 -0.048418 -0.615212
vertex 0.00522022 -0.0482349 -0.565356
endloop
endfacet
facet normal -0.290241 0.956923 0.00765161
outer loop
vertex 0.00289091 -0.0493313 -0.56628
vertex 0.00461206 -0.048418 -0.615212
vertex 0.00178185 -0.0492815 -0.614577
endloop
endfacet
facet normal -0.0187084 0.631787 0.774917
outer loop
vertex -0.0285255 -0.0358723 -0.561726
vertex -0.0168045 -0.039953 -0.558116
vertex -0.0174054 -0.0364592 -0.560979
endloop
endfacet
facet normal -0.0187236 0.631645 0.775031
outer loop
vertex -0.0171833 -0.0329041 -0.563871
vertex -0.0285255 -0.0358723 -0.561726
vertex -0.0174054 -0.0364592 -0.560979
endloop
endfacet
facet normal -0.0187632 0.63174 0.774953
outer loop
vertex -0.0171833 -0.0329041 -0.563871
vertex -0.0161501 -0.0294816 -0.566636
vertex -0.0285255 -0.0358723 -0.561726
endloop
endfacet
facet normal -0.018761 0.631738 0.774955
outer loop
vertex -0.0285255 -0.0358723 -0.561726
vertex -0.0161501 -0.0294816 -0.566636
vertex -0.0384595 -0.0295823 -0.567094
endloop
endfacet
facet normal -0.0187609 0.631747 0.774947
outer loop
vertex -0.0384595 -0.0295823 -0.567094
vertex -0.0161501 -0.0294816 -0.566636
vertex -0.0143624 -0.0263815 -0.56912
endloop
endfacet
facet normal -0.0187731 0.631701 0.774984
outer loop
vertex -0.0459429 -0.0215024 -0.573862
vertex -0.0143624 -0.0263815 -0.56912
vertex -0.0119186 -0.023773 -0.571187
endloop
endfacet
facet normal -0.0187505 0.63175 0.774945
outer loop
vertex -0.0504754 -0.0121736 -0.581576
vertex -0.0119186 -0.023773 -0.571187
vertex -0.00895359 -0.0218009 -0.572723
endloop
endfacet
facet normal -0.0187402 0.631744 0.774951
outer loop
vertex -0.0517536 -0.00221928 -0.589721
vertex -0.00895359 -0.0218009 -0.572723
vertex -0.00732599 -0.0210877 -0.573265
endloop
endfacet
facet normal -0.019033 0.631479 0.775159
outer loop
vertex -0.0496915 0.00769633 -0.597754
vertex -0.00732599 -0.0210877 -0.573265
vertex -0.0056303 -0.0205714 -0.573644
endloop
endfacet
facet normal -0.018568 0.631848 0.77487
outer loop
vertex -0.0444283 0.0169088 -0.605136
vertex -0.0056303 -0.0205714 -0.573644
vertex -0.00388964 -0.020259 -0.573857
endloop
endfacet
facet normal -0.0187874 0.631709 0.774978
outer loop
vertex -0.0363158 0.0248035 -0.611375
vertex -0.00388964 -0.020259 -0.573857
vertex -0.0258945 0.0308524 -0.616053
endloop
endfacet
facet normal -0.0187623 0.63172 0.774969
outer loop
vertex -0.0363158 0.0248035 -0.611375
vertex -0.0444283 0.0169088 -0.605136
vertex -0.00388964 -0.020259 -0.573857
endloop
endfacet
facet normal -0.0186643 0.631742 0.774954
outer loop
vertex -0.00388964 -0.020259 -0.573857
vertex -0.0021301 -0.0201543 -0.5739
vertex -0.0258945 0.0308524 -0.616053
endloop
endfacet
facet normal -0.0187952 0.631704 0.774982
outer loop
vertex -0.0258945 0.0308524 -0.616053
vertex -0.0021301 -0.0201543 -0.5739
vertex -0.0138621 0.0346516 -0.618858
endloop
endfacet
facet normal -0.0187677 0.631708 0.774979
outer loop
vertex -0.0138621 0.0346516 -0.618858
vertex -0.0021301 -0.0201543 -0.5739
vertex -0.00102327 0.035947 -0.619603
endloop
endfacet
facet normal -0.018732 0.631708 0.77498
outer loop
vertex -0.00102327 0.035947 -0.619603
vertex -0.0021301 -0.0201543 -0.5739
vertex 0.0117644 0.0346516 -0.618238
endloop
endfacet
facet normal -0.0187861 0.631716 0.774973
outer loop
vertex 0.0117644 0.0346516 -0.618238
vertex -0.0021301 -0.0201543 -0.5739
vertex 0.023647 0.0308524 -0.614853
endloop
endfacet
facet normal -0.0188164 0.631725 0.774965
outer loop
vertex 0.023647 0.0308524 -0.614853
vertex -0.0021301 -0.0201543 -0.5739
vertex -0.000374675 -0.020259 -0.573772
endloop
endfacet
facet normal -0.0187548 0.631708 0.774979
outer loop
vertex 0.0338296 0.0248035 -0.609676
vertex -0.000374675 -0.020259 -0.573772
vertex 0.0416305 0.0169088 -0.603052
endloop
endfacet
facet normal -0.018753 0.631707 0.77498
outer loop
vertex 0.0338296 0.0248035 -0.609676
vertex 0.023647 0.0308524 -0.614853
vertex -0.000374675 -0.020259 -0.573772
endloop
endfacet
facet normal -0.0189524 0.631842 0.774866
outer loop
vertex -0.000374675 -0.020259 -0.573772
vertex 0.00135365 -0.0205714 -0.573475
vertex 0.0416305 0.0169088 -0.603052
endloop
endfacet
facet normal -0.0188052 0.631747 0.774946
outer loop
vertex 0.0416305 0.0169088 -0.603052
vertex 0.00135365 -0.0205714 -0.573475
vertex 0.0465303 0.00769633 -0.595423
endloop
endfacet
facet normal -0.0186326 0.63158 0.775087
outer loop
vertex 0.0465303 0.00769633 -0.595423
vertex 0.00135365 -0.0205714 -0.573475
vertex 0.00302897 -0.0210877 -0.573014
endloop
endfacet
facet normal -0.0187529 0.631679 0.775003
outer loop
vertex 0.0482011 -0.00221928 -0.5873
vertex 0.00302897 -0.0210877 -0.573014
vertex 0.00462843 -0.0218009 -0.572394
endloop
endfacet
facet normal -0.0188004 0.631808 0.774897
outer loop
vertex 0.0465301 -0.0121736 -0.579227
vertex 0.00462843 -0.0218009 -0.572394
vertex 0.00751566 -0.023773 -0.570716
endloop
endfacet
facet normal -0.018763 0.631723 0.774967
outer loop
vertex 0.0416295 -0.0215024 -0.571741
vertex 0.00751566 -0.023773 -0.570716
vertex 0.0098565 -0.0263815 -0.568533
endloop
endfacet
facet normal -0.0187612 0.631663 0.775016
outer loop
vertex 0.0338273 -0.0295823 -0.565344
vertex 0.0098565 -0.0263815 -0.568533
vertex 0.0115218 -0.0294816 -0.565966
endloop
endfacet
facet normal -0.0187093 0.631785 0.774918
outer loop
vertex 0.0236452 -0.0358723 -0.560463
vertex 0.0115218 -0.0294816 -0.565966
vertex 0.01242 -0.0329041 -0.563154
endloop
endfacet
facet normal -0.0187962 0.631595 0.77507
outer loop
vertex 0.0125018 -0.0364592 -0.560255
vertex 0.0236452 -0.0358723 -0.560463
vertex 0.01242 -0.0329041 -0.563154
endloop
endfacet
facet normal -0.018813 0.631843 0.774868
outer loop
vertex 0.0125018 -0.0364592 -0.560255
vertex 0.0117631 -0.039953 -0.557424
vertex 0.0236452 -0.0358723 -0.560463
endloop
endfacet
facet normal -0.0187594 0.631729 0.774962
outer loop
vertex 0.0115218 -0.0294816 -0.565966
vertex 0.0236452 -0.0358723 -0.560463
vertex 0.0338273 -0.0295823 -0.565344
endloop
endfacet
facet normal -0.018755 0.631689 0.774995
outer loop
vertex 0.0338273 -0.0295823 -0.565344
vertex 0.0416295 -0.0215024 -0.571741
vertex 0.0098565 -0.0263815 -0.568533
endloop
endfacet
facet normal -0.0187638 0.631731 0.77496
outer loop
vertex 0.0416295 -0.0215024 -0.571741
vertex 0.0465301 -0.0121736 -0.579227
vertex 0.00751566 -0.023773 -0.570716
endloop
endfacet
facet normal -0.0187541 0.631681 0.775002
outer loop
vertex 0.0465301 -0.0121736 -0.579227
vertex 0.0482011 -0.00221928 -0.5873
vertex 0.00462843 -0.0218009 -0.572394
endloop
endfacet
facet normal -0.0187727 0.631708 0.774979
outer loop
vertex 0.0465303 0.00769633 -0.595423
vertex 0.00302897 -0.0210877 -0.573014
vertex 0.0482011 -0.00221928 -0.5873
endloop
endfacet
facet normal -0.0187789 0.631716 0.774972
outer loop
vertex -0.0444283 0.0169088 -0.605136
vertex -0.0496915 0.00769633 -0.597754
vertex -0.0056303 -0.0205714 -0.573644
endloop
endfacet
facet normal -0.0187532 0.631726 0.774965
outer loop
vertex -0.0496915 0.00769633 -0.597754
vertex -0.0517536 -0.00221928 -0.589721
vertex -0.00732599 -0.0210877 -0.573265
endloop
endfacet
facet normal -0.018767 0.631709 0.774978
outer loop
vertex -0.0504754 -0.0121736 -0.581576
vertex -0.00895359 -0.0218009 -0.572723
vertex -0.0517536 -0.00221928 -0.589721
endloop
endfacet
facet normal -0.0187721 0.631708 0.774979
outer loop
vertex -0.0504754 -0.0121736 -0.581576
vertex -0.0459429 -0.0215024 -0.573862
vertex -0.0119186 -0.023773 -0.571187
endloop
endfacet
facet normal -0.0187607 0.631746 0.774948
outer loop
vertex -0.0459429 -0.0215024 -0.573862
vertex -0.0384595 -0.0295823 -0.567094
vertex -0.0143624 -0.0263815 -0.56912
endloop
endfacet
facet normal 0.252753 -0.74686 0.615074
outer loop
vertex 0.0117631 -0.039953 -0.557424
vertex 0.0100801 -0.0436018 -0.561163
vertex 0.011348 -0.0718321 -0.595963
endloop
endfacet
facet normal 0.368434 -0.718284 0.59019
outer loop
vertex 0.0234799 -0.0679608 -0.598825
vertex 0.0117631 -0.039953 -0.557424
vertex 0.011348 -0.0718321 -0.595963
endloop
endfacet
facet normal 0.393132 -0.706111 0.588944
outer loop
vertex 0.0234799 -0.0679608 -0.598825
vertex 0.0236452 -0.0358723 -0.560463
vertex 0.0117631 -0.039953 -0.557424
endloop
endfacet
facet normal 0.59651 -0.616892 0.513439
outer loop
vertex 0.0234799 -0.0679608 -0.598825
vertex 0.0339533 -0.061801 -0.603592
vertex 0.0236452 -0.0358723 -0.560463
endloop
endfacet
facet normal 0.615636 -0.601696 0.508875
outer loop
vertex 0.0236452 -0.0358723 -0.560463
vertex 0.0339533 -0.061801 -0.603592
vertex 0.0338273 -0.0295823 -0.565344
endloop
endfacet
facet normal 0.783879 -0.473609 0.401533
outer loop
vertex 0.0338273 -0.0295823 -0.565344
vertex 0.0339533 -0.061801 -0.603592
vertex 0.0420544 -0.0537738 -0.609939
endloop
endfacet
facet normal 0.917789 -0.298221 0.26216
outer loop
vertex 0.0416295 -0.0215024 -0.571741
vertex 0.0420544 -0.0537738 -0.609939
vertex 0.0472323 -0.0444264 -0.617433
endloop
endfacet
facet normal 0.989192 -0.102575 0.104773
outer loop
vertex 0.0465301 -0.0121736 -0.579227
vertex 0.0472323 -0.0444264 -0.617433
vertex 0.0491337 -0.0343953 -0.625564
endloop
endfacet
facet normal 0.993182 0.10001 -0.0598912
outer loop
vertex 0.0482011 -0.00221928 -0.5873
vertex 0.0491337 -0.0343953 -0.625564
vertex 0.0476282 -0.0243634 -0.633778
endloop
endfacet
facet normal 0.929477 0.295686 -0.220549
outer loop
vertex 0.0465303 0.00769633 -0.595423
vertex 0.0476282 -0.0243634 -0.633778
vertex 0.042819 -0.0150161 -0.641514
endloop
endfacet
facet normal 0.802482 0.471074 -0.366212
outer loop
vertex 0.0416305 0.0169088 -0.603052
vertex 0.042819 -0.0150161 -0.641514
vertex 0.0350347 -0.00698885 -0.648246
endloop
endfacet
facet normal 0.620756 0.614383 -0.487027
outer loop
vertex 0.0338296 0.0248035 -0.609676
vertex 0.0350347 -0.00698885 -0.648246
vertex 0.0248043 -0.000829096 -0.653515
endloop
endfacet
facet normal 0.396616 0.715825 -0.574709
outer loop
vertex 0.023647 0.0308524 -0.614853
vertex 0.0248043 -0.000829096 -0.653515
vertex 0.0128252 0.00304226 -0.65696
endloop
endfacet
facet normal 0.145716 0.768349 -0.623222
outer loop
vertex 0.0117644 0.0346516 -0.618238
vertex 0.0128252 0.00304226 -0.65696
vertex -8.49334e-005 0.00436321 -0.65835
endloop
endfacet
facet normal -0.114079 0.768701 -0.629353
outer loop
vertex -0.00102327 0.035947 -0.619603
vertex -8.49334e-005 0.00436321 -0.65835
vertex -0.0138621 0.0346516 -0.618858
endloop
endfacet
facet normal 0.144382 0.768704 -0.623096
outer loop
vertex -0.00102327 0.035947 -0.619603
vertex 0.0117644 0.0346516 -0.618238
vertex -8.49334e-005 0.00436321 -0.65835
endloop
endfacet
facet normal 0.222401 -0.753172 0.619088
outer loop
vertex 0.0100801 -0.0436018 -0.561163
vertex 0.00878676 -0.0453079 -0.562774
vertex 0.011348 -0.0718321 -0.595963
endloop
endfacet
facet normal 0.193996 -0.758982 0.621539
outer loop
vertex 0.011348 -0.0718321 -0.595963
vertex 0.00878676 -0.0453079 -0.562774
vertex 0.00719393 -0.0468533 -0.564164
endloop
endfacet
facet normal 0.160153 -0.765971 0.622608
outer loop
vertex 0.00522022 -0.0482349 -0.565356
vertex 0.011348 -0.0718321 -0.595963
vertex 0.00719393 -0.0468533 -0.564164
endloop
endfacet
facet normal 0.11834 -0.774794 0.621039
outer loop
vertex 0.00522022 -0.0482349 -0.565356
vertex 0.00289091 -0.0493313 -0.56628
vertex 0.011348 -0.0718321 -0.595963
endloop
endfacet
facet normal 0.115566 -0.775449 0.620745
outer loop
vertex 0.011348 -0.0718321 -0.595963
vertex 0.00289091 -0.0493313 -0.56628
vertex -0.00161425 -0.0731531 -0.5952
endloop
endfacet
facet normal 0.0645928 -0.775163 0.62845
outer loop
vertex -0.00161425 -0.0731531 -0.5952
vertex 0.00289091 -0.0493313 -0.56628
vertex 0.000331458 -0.0500237 -0.566871
endloop
endfacet
facet normal 0.0110121 -0.774935 0.631944
outer loop
vertex -0.00229459 -0.0502535 -0.567107
vertex -0.00161425 -0.0731531 -0.5952
vertex 0.000331458 -0.0500237 -0.566871
endloop
endfacet
facet normal -0.0414989 -0.774937 0.630674
outer loop
vertex -0.00229459 -0.0502535 -0.567107
vertex -0.004929 -0.0500237 -0.566998
vertex -0.00161425 -0.0731531 -0.5952
endloop
endfacet
facet normal -0.0950404 -0.775166 0.624568
outer loop
vertex -0.00161425 -0.0731531 -0.5952
vertex -0.004929 -0.0500237 -0.566998
vertex -0.00751404 -0.0493313 -0.566532
endloop
endfacet
facet normal -0.148288 -0.774783 0.614591
outer loop
vertex -0.0145244 -0.0718321 -0.596589
vertex -0.00751404 -0.0493313 -0.566532
vertex -0.00988535 -0.0482349 -0.565722
endloop
endfacet
facet normal -0.189848 -0.766022 0.61414
outer loop
vertex -0.0119145 -0.0468533 -0.564626
vertex -0.0145244 -0.0718321 -0.596589
vertex -0.00988535 -0.0482349 -0.565722
endloop
endfacet
facet normal -0.224273 -0.758892 0.611379
outer loop
vertex -0.0119145 -0.0468533 -0.564626
vertex -0.0135727 -0.0453079 -0.563316
vertex -0.0145244 -0.0718321 -0.596589
endloop
endfacet
facet normal -0.251895 -0.753209 0.607639
outer loop
vertex -0.0145244 -0.0718321 -0.596589
vertex -0.0135727 -0.0453079 -0.563316
vertex -0.0149425 -0.0436018 -0.561769
endloop
endfacet
facet normal -0.282262 -0.746849 0.602118
outer loop
vertex -0.0168045 -0.039953 -0.558116
vertex -0.0145244 -0.0718321 -0.596589
vertex -0.0149425 -0.0436018 -0.561769
endloop
endfacet
facet normal -0.396576 -0.718277 0.571668
outer loop
vertex -0.0168045 -0.039953 -0.558116
vertex -0.0265035 -0.0679608 -0.600035
vertex -0.0145244 -0.0718321 -0.596589
endloop
endfacet
facet normal -0.421155 -0.706119 0.569232
outer loop
vertex -0.0168045 -0.039953 -0.558116
vertex -0.0285255 -0.0358723 -0.561726
vertex -0.0265035 -0.0679608 -0.600035
endloop
endfacet
facet normal -0.620681 -0.616882 0.483954
outer loop
vertex -0.0265035 -0.0679608 -0.600035
vertex -0.0285255 -0.0358723 -0.561726
vertex -0.0367339 -0.061801 -0.605304
endloop
endfacet
facet normal -0.639541 -0.601704 0.478476
outer loop
vertex -0.0367339 -0.061801 -0.605304
vertex -0.0285255 -0.0358723 -0.561726
vertex -0.0384595 -0.0295823 -0.567094
endloop
endfacet
facet normal -0.815208 -0.456942 0.355864
outer loop
vertex -0.0445182 -0.0537738 -0.612036
vertex -0.0384595 -0.0295823 -0.567094
vertex -0.0459429 -0.0215024 -0.573862
endloop
endfacet
facet normal -0.936354 -0.281592 0.209634
outer loop
vertex -0.0493274 -0.0444264 -0.619772
vertex -0.0459429 -0.0215024 -0.573862
vertex -0.0504754 -0.0121736 -0.581576
endloop
endfacet
facet normal -0.994954 -0.0872883 0.0494601
outer loop
vertex -0.0508329 -0.0343953 -0.627985
vertex -0.0504754 -0.0121736 -0.581576
vertex -0.0517536 -0.00221928 -0.589721
endloop
endfacet
facet normal -0.987044 0.112954 -0.113952
outer loop
vertex -0.0489315 -0.0243634 -0.636116
vertex -0.0517536 -0.00221928 -0.589721
vertex -0.0496915 0.00769633 -0.597754
endloop
endfacet
facet normal -0.913169 0.305647 -0.269633
outer loop
vertex -0.0437536 -0.0150161 -0.64361
vertex -0.0496915 0.00769633 -0.597754
vertex -0.0444283 0.0169088 -0.605136
endloop
endfacet
facet normal -0.778292 0.477953 -0.407213
outer loop
vertex -0.0356525 -0.00698885 -0.649958
vertex -0.0444283 0.0169088 -0.605136
vertex -0.0363158 0.0248035 -0.611375
endloop
endfacet
facet normal -0.591303 0.618438 -0.517586
outer loop
vertex -0.025179 -0.000829096 -0.654725
vertex -0.0363158 0.0248035 -0.611375
vertex -0.0258945 0.0308524 -0.616053
endloop
endfacet
facet normal -0.364872 0.717535 -0.593306
outer loop
vertex -0.0130472 0.00304226 -0.657587
vertex -0.0258945 0.0308524 -0.616053
vertex -0.0138621 0.0346516 -0.618858
endloop
endfacet
facet normal -0.115358 0.768359 -0.629537
outer loop
vertex -8.49334e-005 0.00436321 -0.65835
vertex -0.0130472 0.00304226 -0.657587
vertex -0.0138621 0.0346516 -0.618858
endloop
endfacet
facet normal 0.393194 0.717518 -0.574949
outer loop
vertex 0.0117644 0.0346516 -0.618238
vertex 0.023647 0.0308524 -0.614853
vertex 0.0128252 0.00304226 -0.65696
endloop
endfacet
facet normal 0.615666 0.61844 -0.488351
outer loop
vertex 0.023647 0.0308524 -0.614853
vertex 0.0338296 0.0248035 -0.609676
vertex 0.0248043 -0.000829096 -0.653515
endloop
endfacet
facet normal 0.797088 0.477957 -0.369064
outer loop
vertex 0.0338296 0.0248035 -0.609676
vertex 0.0416305 0.0169088 -0.603052
vertex 0.0350347 -0.00698885 -0.648246
endloop
endfacet
facet normal 0.925154 0.305642 -0.225107
outer loop
vertex 0.0416305 0.0169088 -0.603052
vertex 0.0465303 0.00769633 -0.595423
vertex 0.042819 -0.0150161 -0.641514
endloop
endfacet
facet normal 0.991403 0.112955 -0.066037
outer loop
vertex 0.0465303 0.00769633 -0.595423
vertex 0.0482011 -0.00221928 -0.5873
vertex 0.0476282 -0.0243634 -0.633778
endloop
endfacet
facet normal 0.991393 -0.0872935 0.0975678
outer loop
vertex 0.0482011 -0.00221928 -0.5873
vertex 0.0465301 -0.0121736 -0.579227
vertex 0.0491337 -0.0343953 -0.625564
endloop
endfacet
facet normal 0.925112 -0.281584 0.254711
outer loop
vertex 0.0465301 -0.0121736 -0.579227
vertex 0.0416295 -0.0215024 -0.571741
vertex 0.0472323 -0.0444264 -0.617433
endloop
endfacet
facet normal 0.797013 -0.456954 0.394921
outer loop
vertex 0.0416295 -0.0215024 -0.571741
vertex 0.0338273 -0.0295823 -0.565344
vertex 0.0420544 -0.0537738 -0.609939
endloop
endfacet
facet normal -0.368368 0.715809 -0.593231
outer loop
vertex -0.0130472 0.00304226 -0.657587
vertex -0.025179 -0.000829096 -0.654725
vertex -0.0258945 0.0308524 -0.616053
endloop
endfacet
facet normal -0.596433 0.614395 -0.516514
outer loop
vertex -0.025179 -0.000829096 -0.654725
vertex -0.0356525 -0.00698885 -0.649958
vertex -0.0363158 0.0248035 -0.611375
endloop
endfacet
facet normal -0.783827 0.47106 -0.404621
outer loop
vertex -0.0356525 -0.00698885 -0.649958
vertex -0.0437536 -0.0150161 -0.64361
vertex -0.0444283 0.0169088 -0.605136
endloop
endfacet
facet normal -0.917714 0.295679 -0.265284
outer loop
vertex -0.0437536 -0.0150161 -0.64361
vertex -0.0489315 -0.0243634 -0.636116
vertex -0.0496915 0.00769633 -0.597754
endloop
endfacet
facet normal -0.989118 0.100016 -0.107903
outer loop
vertex -0.0489315 -0.0243634 -0.636116
vertex -0.0508329 -0.0343953 -0.627985
vertex -0.0517536 -0.00221928 -0.589721
endloop
endfacet
facet normal -0.993105 -0.102573 0.0567643
outer loop
vertex -0.0508329 -0.0343953 -0.627985
vertex -0.0493274 -0.0444264 -0.619772
vertex -0.0504754 -0.0121736 -0.581576
endloop
endfacet
facet normal -0.929401 -0.298227 0.217428
outer loop
vertex -0.0493274 -0.0444264 -0.619772
vertex -0.0445182 -0.0537738 -0.612036
vertex -0.0459429 -0.0215024 -0.573862
endloop
endfacet
facet normal -0.802404 -0.473605 0.363107
outer loop
vertex -0.0445182 -0.0537738 -0.612036
vertex -0.0367339 -0.061801 -0.605304
vertex -0.0384595 -0.0295823 -0.567094
endloop
endfacet
facet normal -0.145454 -0.775449 0.614429
outer loop
vertex -0.0145244 -0.0718321 -0.596589
vertex -0.00161425 -0.0731531 -0.5952
vertex -0.00751404 -0.0493313 -0.566532
endloop
endfacet
facet normal 0.0185878 -0.63171 -0.774982
outer loop
vertex -0.00114906 -0.0495738 -0.614409
vertex 0.00178185 -0.0492815 -0.614577
vertex -0.00161425 -0.0731531 -0.5952
endloop
endfacet
facet normal 0.0187424 -0.631713 -0.774976
outer loop
vertex -0.00406843 -0.0492815 -0.614718
vertex -0.00161425 -0.0731531 -0.5952
vertex -0.0145244 -0.0718321 -0.596589
endloop
endfacet
facet normal 0.018774 -0.631729 -0.774962
outer loop
vertex -0.00686457 -0.048418 -0.61549
vertex -0.0145244 -0.0718321 -0.596589
vertex -0.0265035 -0.0679608 -0.600035
endloop
endfacet
facet normal 0.0187719 -0.63172 -0.77497
outer loop
vertex -0.00942915 -0.0470156 -0.616695
vertex -0.0265035 -0.0679608 -0.600035
vertex -0.0367339 -0.061801 -0.605304
endloop
endfacet
facet normal 0.018785 -0.631736 -0.774956
outer loop
vertex -0.0116642 -0.045128 -0.618288
vertex -0.0367339 -0.061801 -0.605304
vertex -0.0134833 -0.042828 -0.620207
endloop
endfacet
facet normal 0.0187943 -0.631745 -0.774949
outer loop
vertex -0.0116642 -0.045128 -0.618288
vertex -0.00942915 -0.0470156 -0.616695
vertex -0.0367339 -0.061801 -0.605304
endloop
endfacet
facet normal 0.0188461 -0.631701 -0.774983
outer loop
vertex 0.00461206 -0.048418 -0.615212
vertex 0.011348 -0.0718321 -0.595963
vertex 0.00178185 -0.0492815 -0.614577
endloop
endfacet
facet normal 0.0187615 -0.631717 -0.774972
outer loop
vertex 0.00461206 -0.048418 -0.615212
vertex 0.0234799 -0.0679608 -0.598825
vertex 0.011348 -0.0718321 -0.595963
endloop
endfacet
facet normal 0.0187144 -0.631744 -0.774951
outer loop
vertex 0.00461206 -0.048418 -0.615212
vertex 0.00723197 -0.0470156 -0.616292
vertex 0.0234799 -0.0679608 -0.598825
endloop
endfacet
facet normal 0.0187953 -0.631706 -0.77498
outer loop
vertex 0.0234799 -0.0679608 -0.598825
vertex 0.00723197 -0.0470156 -0.616292
vertex 0.0339533 -0.061801 -0.603592
endloop
endfacet
facet normal 0.0188795 -0.631616 -0.775052
outer loop
vertex 0.0339533 -0.061801 -0.603592
vertex 0.00723197 -0.0470156 -0.616292
vertex 0.00954154 -0.045128 -0.617774
endloop
endfacet
facet normal 0.0187084 -0.631766 -0.774934
outer loop
vertex 0.0114514 -0.042828 -0.619603
vertex 0.0339533 -0.061801 -0.603592
vertex 0.00954154 -0.045128 -0.617774
endloop
endfacet
facet normal 0.01878 -0.631714 -0.774974
outer loop
vertex 0.0114514 -0.042828 -0.619603
vertex 0.0420544 -0.0537738 -0.609939
vertex 0.0339533 -0.061801 -0.603592
endloop
endfacet
facet normal 0.0187633 -0.631742 -0.774952
outer loop
vertex 0.0114514 -0.042828 -0.619603
vertex 0.0128898 -0.0402031 -0.621708
vertex 0.0420544 -0.0537738 -0.609939
endloop
endfacet
facet normal 0.0187826 -0.631717 -0.774971
outer loop
vertex 0.0420544 -0.0537738 -0.609939
vertex 0.0128898 -0.0402031 -0.621708
vertex 0.0472323 -0.0444264 -0.617433
endloop
endfacet
facet normal 0.0187803 -0.631728 -0.774963
outer loop
vertex 0.0472323 -0.0444264 -0.617433
vertex 0.0128898 -0.0402031 -0.621708
vertex 0.0137987 -0.0373558 -0.624007
endloop
endfacet
facet normal 0.0187639 -0.631587 -0.775078
outer loop
vertex 0.0491337 -0.0343953 -0.625564
vertex 0.0137987 -0.0373558 -0.624007
vertex 0.014145 -0.0343953 -0.626411
endloop
endfacet
facet normal 0.0187593 -0.631817 -0.774891
outer loop
vertex 0.0139155 -0.0314341 -0.628831
vertex 0.0491337 -0.0343953 -0.625564
vertex 0.014145 -0.0343953 -0.626411
endloop
endfacet
facet normal 0.018775 -0.631719 -0.77497
outer loop
vertex 0.0139155 -0.0314341 -0.628831
vertex 0.0476282 -0.0243634 -0.633778
vertex 0.0491337 -0.0343953 -0.625564
endloop
endfacet
facet normal 0.0187545 -0.631657 -0.775021
outer loop
vertex 0.0139155 -0.0314341 -0.628831
vertex 0.0131189 -0.0285867 -0.631171
vertex 0.0476282 -0.0243634 -0.633778
endloop
endfacet
facet normal 0.0187668 -0.631724 -0.774967
outer loop
vertex 0.0476282 -0.0243634 -0.633778
vertex 0.0131189 -0.0285867 -0.631171
vertex 0.042819 -0.0150161 -0.641514
endloop
endfacet
facet normal 0.0187701 -0.631728 -0.774963
outer loop
vertex 0.042819 -0.0150161 -0.641514
vertex 0.0131189 -0.0285867 -0.631171
vertex 0.0117841 -0.0259619 -0.633343
endloop
endfacet
facet normal 0.0187858 -0.631736 -0.774956
outer loop
vertex 0.0350347 -0.00698885 -0.648246
vertex 0.0117841 -0.0259619 -0.633343
vertex 0.00996505 -0.0236619 -0.635262
endloop
endfacet
facet normal 0.0187949 -0.631744 -0.774949
outer loop
vertex 0.00772996 -0.0217743 -0.636855
vertex 0.0350347 -0.00698885 -0.648246
vertex 0.00996505 -0.0236619 -0.635262
endloop
endfacet
facet normal 0.0187737 -0.63172 -0.774969
outer loop
vertex 0.00772996 -0.0217743 -0.636855
vertex 0.0248043 -0.000829096 -0.653515
vertex 0.0350347 -0.00698885 -0.648246
endloop
endfacet
facet normal 0.0187048 -0.631687 -0.774998
outer loop
vertex 0.00772996 -0.0217743 -0.636855
vertex 0.00516538 -0.0203719 -0.63806
vertex 0.0248043 -0.000829096 -0.653515
endloop
endfacet
facet normal 0.0187258 -0.6317 -0.774987
outer loop
vertex 0.0248043 -0.000829096 -0.653515
vertex 0.00516538 -0.0203719 -0.63806
vertex 0.0128252 0.00304226 -0.65696
endloop
endfacet
facet normal 0.0188732 -0.631727 -0.774961
outer loop
vertex 0.0128252 0.00304226 -0.65696
vertex 0.00516538 -0.0203719 -0.63806
vertex 0.00236925 -0.0195084 -0.638832
endloop
endfacet
facet normal 0.0187913 -0.631709 -0.774978
outer loop
vertex -8.49334e-005 0.00436321 -0.65835
vertex 0.00236925 -0.0195084 -0.638832
vertex -0.00055013 -0.0192161 -0.639141
endloop
endfacet
facet normal 0.0185714 -0.631709 -0.774983
outer loop
vertex -0.00348104 -0.0195084 -0.638973
vertex -8.49334e-005 0.00436321 -0.65835
vertex -0.00055013 -0.0192161 -0.639141
endloop
endfacet
facet normal 0.0187602 -0.631723 -0.774967
outer loop
vertex -0.00348104 -0.0195084 -0.638973
vertex -0.0130472 0.00304226 -0.657587
vertex -8.49334e-005 0.00436321 -0.65835
endloop
endfacet
facet normal 0.0188605 -0.631696 -0.774986
outer loop
vertex -0.00348104 -0.0195084 -0.638973
vertex -0.00631125 -0.0203719 -0.638338
vertex -0.0130472 0.00304226 -0.657587
endloop
endfacet
facet normal 0.0187633 -0.631714 -0.774974
outer loop
vertex -0.0130472 0.00304226 -0.657587
vertex -0.00631125 -0.0203719 -0.638338
vertex -0.025179 -0.000829096 -0.654725
endloop
endfacet
facet normal 0.0187015 -0.631751 -0.774946
outer loop
vertex -0.025179 -0.000829096 -0.654725
vertex -0.00631125 -0.0203719 -0.638338
vertex -0.00893116 -0.0217743 -0.637258
endloop
endfacet
facet normal 0.0188789 -0.631615 -0.775052
outer loop
vertex -0.0356525 -0.00698885 -0.649958
vertex -0.00893116 -0.0217743 -0.637258
vertex -0.0112407 -0.0236619 -0.635776
endloop
endfacet
facet normal 0.0187076 -0.631765 -0.774934
outer loop
vertex -0.0131506 -0.0259619 -0.633947
vertex -0.0356525 -0.00698885 -0.649958
vertex -0.0112407 -0.0236619 -0.635776
endloop
endfacet
facet normal 0.018736 -0.631745 -0.77495
outer loop
vertex -0.0131506 -0.0259619 -0.633947
vertex -0.0437536 -0.0150161 -0.64361
vertex -0.0356525 -0.00698885 -0.649958
endloop
endfacet
facet normal 0.0187346 -0.631747 -0.774948
outer loop
vertex -0.0131506 -0.0259619 -0.633947
vertex -0.0145889 -0.0285867 -0.631842
vertex -0.0437536 -0.0150161 -0.64361
endloop
endfacet
facet normal 0.0187623 -0.631712 -0.774976
outer loop
vertex -0.0437536 -0.0150161 -0.64361
vertex -0.0145889 -0.0285867 -0.631842
vertex -0.0489315 -0.0243634 -0.636116
endloop
endfacet
facet normal 0.0187625 -0.631711 -0.774977
outer loop
vertex -0.0489315 -0.0243634 -0.636116
vertex -0.0145889 -0.0285867 -0.631842
vertex -0.0154979 -0.0314341 -0.629543
endloop
endfacet
facet normal 0.0187614 -0.631647 -0.775029
outer loop
vertex -0.0508329 -0.0343953 -0.627985
vertex -0.0154979 -0.0314341 -0.629543
vertex -0.0158442 -0.0343953 -0.627138
endloop
endfacet
facet normal 0.0187594 -0.631747 -0.774947
outer loop
vertex -0.0156147 -0.0373558 -0.624719
vertex -0.0508329 -0.0343953 -0.627985
vertex -0.0158442 -0.0343953 -0.627138
endloop
endfacet
facet normal 0.0187665 -0.631703 -0.774984
outer loop
vertex -0.0156147 -0.0373558 -0.624719
vertex -0.0493274 -0.0444264 -0.619772
vertex -0.0508329 -0.0343953 -0.627985
endloop
endfacet
facet normal 0.0187586 -0.631679 -0.775003
outer loop
vertex -0.0156147 -0.0373558 -0.624719
vertex -0.0148181 -0.0402031 -0.622379
vertex -0.0493274 -0.0444264 -0.619772
endloop
endfacet
facet normal 0.0187661 -0.63172 -0.77497
outer loop
vertex -0.0493274 -0.0444264 -0.619772
vertex -0.0148181 -0.0402031 -0.622379
vertex -0.0445182 -0.0537738 -0.612036
endloop
endfacet
facet normal 0.018763 -0.631715 -0.774973
outer loop
vertex -0.0445182 -0.0537738 -0.612036
vertex -0.0148181 -0.0402031 -0.622379
vertex -0.0134833 -0.042828 -0.620207
endloop
endfacet
facet normal 0.0187677 -0.631724 -0.774967
outer loop
vertex -0.0367339 -0.061801 -0.605304
vertex -0.0445182 -0.0537738 -0.612036
vertex -0.0134833 -0.042828 -0.620207
endloop
endfacet
facet normal 0.0187044 -0.631687 -0.774998
outer loop
vertex -0.00686457 -0.048418 -0.61549
vertex -0.0265035 -0.0679608 -0.600035
vertex -0.00942915 -0.0470156 -0.616695
endloop
endfacet
facet normal 0.0188639 -0.631745 -0.774946
outer loop
vertex -0.00686457 -0.048418 -0.61549
vertex -0.00406843 -0.0492815 -0.614718
vertex -0.0145244 -0.0718321 -0.596589
endloop
endfacet
facet normal 0.0187749 -0.63171 -0.774977
outer loop
vertex -0.00406843 -0.0492815 -0.614718
vertex -0.00114906 -0.0495738 -0.614409
vertex -0.00161425 -0.0731531 -0.5952
endloop
endfacet
facet normal 0.0187806 -0.631727 -0.774964
outer loop
vertex 0.0472323 -0.0444264 -0.617433
vertex 0.0137987 -0.0373558 -0.624007
vertex 0.0491337 -0.0343953 -0.625564
endloop
endfacet
facet normal 0.0187629 -0.631723 -0.774967
outer loop
vertex 0.011348 -0.0718321 -0.595963
vertex -0.00161425 -0.0731531 -0.5952
vertex 0.00178185 -0.0492815 -0.614577
endloop
endfacet
facet normal 0.0187675 -0.631698 -0.774988
outer loop
vertex -0.0508329 -0.0343953 -0.627985
vertex -0.0489315 -0.0243634 -0.636116
vertex -0.0154979 -0.0314341 -0.629543
endloop
endfacet
facet normal 0.0187934 -0.631707 -0.774979
outer loop
vertex -0.0356525 -0.00698885 -0.649958
vertex -0.025179 -0.000829096 -0.654725
vertex -0.00893116 -0.0217743 -0.637258
endloop
endfacet
facet normal 0.018803 -0.631708 -0.774978
outer loop
vertex -8.49334e-005 0.00436321 -0.65835
vertex 0.0128252 0.00304226 -0.65696
vertex 0.00236925 -0.0195084 -0.638832
endloop
endfacet
facet normal 0.0187666 -0.631722 -0.774968
outer loop
vertex 0.0350347 -0.00698885 -0.648246
vertex 0.042819 -0.0150161 -0.641514
vertex 0.0117841 -0.0259619 -0.633343
endloop
endfacet
endsolid
