solid C:\Documents and Settings\helano\Desktop\saltel\drexel\5100-12.stl created by CtrlView V3.00
facet normal -0.974713 0.115972 -0.191013
outer loop
vertex -0.0122443 -0.0411068 -0.63062
vertex -0.0124493 -0.0420583 -0.630151
vertex -0.0132628 -0.0388936 -0.624079
endloop
endfacet
facet normal -0.974713 0.115972 -0.191013
outer loop
vertex -0.0130578 -0.037942 -0.624547
vertex -0.0122443 -0.0411068 -0.63062
vertex -0.0132628 -0.0388936 -0.624079
endloop
endfacet
facet normal -0.99062 -0.115965 -0.0722715
outer loop
vertex -0.0130578 -0.037942 -0.624547
vertex -0.0123188 -0.0401552 -0.631126
vertex -0.0122443 -0.0411068 -0.63062
endloop
endfacet
facet normal -0.99062 -0.115965 -0.0722715
outer loop
vertex -0.0130578 -0.037942 -0.624547
vertex -0.0131323 -0.0369905 -0.625053
vertex -0.0123188 -0.0401552 -0.631126
endloop
endfacet
facet normal -0.93885 -0.340431 0.0516422
outer loop
vertex -0.0123188 -0.0401552 -0.631126
vertex -0.0131323 -0.0369905 -0.625053
vertex -0.0126683 -0.0392685 -0.631634
endloop
endfacet
facet normal -0.93885 -0.340431 0.0516422
outer loop
vertex -0.0126683 -0.0392685 -0.631634
vertex -0.0131323 -0.0369905 -0.625053
vertex -0.0134818 -0.0361037 -0.625562
endloop
endfacet
facet normal -0.823666 -0.540562 0.171369
outer loop
vertex -0.0132673 -0.0385071 -0.632111
vertex -0.0134818 -0.0361037 -0.625562
vertex -0.0140808 -0.0353423 -0.626039
endloop
endfacet
facet normal -0.651921 -0.704726 0.27993
outer loop
vertex -0.0140766 -0.0379225 -0.632525
vertex -0.0140808 -0.0353423 -0.626039
vertex -0.0148901 -0.0347577 -0.626452
endloop
endfacet
facet normal -0.435297 -0.820957 0.369522
outer loop
vertex -0.0158541 -0.0343908 -0.626772
vertex -0.0140766 -0.0379225 -0.632525
vertex -0.0148901 -0.0347577 -0.626452
endloop
endfacet
facet normal -0.435297 -0.820957 0.369522
outer loop
vertex -0.0158541 -0.0343908 -0.626772
vertex -0.0150406 -0.0375555 -0.632845
vertex -0.0140766 -0.0379225 -0.632525
endloop
endfacet
facet normal -0.189806 -0.880872 0.433633
outer loop
vertex -0.0158541 -0.0343908 -0.626772
vertex -0.0160935 -0.0374302 -0.633051
vertex -0.0150406 -0.0375555 -0.632845
endloop
endfacet
facet normal -0.189806 -0.880872 0.433633
outer loop
vertex -0.0158541 -0.0343908 -0.626772
vertex -0.016907 -0.0342655 -0.626979
vertex -0.0160935 -0.0374302 -0.633051
endloop
endfacet
facet normal 0.0689801 -0.880872 0.468301
outer loop
vertex -0.0160935 -0.0374302 -0.633051
vertex -0.016907 -0.0342655 -0.626979
vertex -0.0179771 -0.0343908 -0.627057
endloop
endfacet
facet normal 0.32269 -0.820957 0.471064
outer loop
vertex -0.0171636 -0.0375555 -0.633129
vertex -0.0179771 -0.0343908 -0.627057
vertex -0.0189915 -0.0347577 -0.627001
endloop
endfacet
facet normal 0.555257 -0.704726 0.441646
outer loop
vertex -0.018178 -0.0379225 -0.633074
vertex -0.0189915 -0.0347577 -0.627001
vertex -0.019881 -0.0353423 -0.626816
endloop
endfacet
facet normal 0.749041 -0.541079 0.382323
outer loop
vertex -0.0190675 -0.0385071 -0.632888
vertex -0.019881 -0.0353423 -0.626816
vertex -0.0205854 -0.0361037 -0.626513
endloop
endfacet
facet normal 0.892527 -0.339729 0.296613
outer loop
vertex -0.0197719 -0.0392685 -0.632586
vertex -0.0205854 -0.0361037 -0.626513
vertex -0.0210555 -0.0369905 -0.626114
endloop
endfacet
facet normal 0.974714 -0.115965 0.191009
outer loop
vertex -0.020242 -0.0401552 -0.632187
vertex -0.0210555 -0.0369905 -0.626114
vertex -0.0212606 -0.037942 -0.625646
endloop
endfacet
facet normal 0.99062 0.115971 0.0722685
outer loop
vertex -0.020447 -0.0411068 -0.631718
vertex -0.0212606 -0.037942 -0.625646
vertex -0.0203725 -0.0420583 -0.631213
endloop
endfacet
facet normal 0.974714 -0.115965 0.191009
outer loop
vertex -0.020447 -0.0411068 -0.631718
vertex -0.020242 -0.0401552 -0.632187
vertex -0.0212606 -0.037942 -0.625646
endloop
endfacet
facet normal -0.892155 0.340431 -0.296928
outer loop
vertex -0.0124493 -0.0420583 -0.630151
vertex -0.0129205 -0.042945 -0.629752
vertex -0.0132628 -0.0388936 -0.624079
endloop
endfacet
facet normal -0.892155 0.340431 -0.296928
outer loop
vertex -0.0132628 -0.0388936 -0.624079
vertex -0.0129205 -0.042945 -0.629752
vertex -0.013734 -0.0397803 -0.62368
endloop
endfacet
facet normal -0.74952 0.540562 -0.382117
outer loop
vertex -0.013734 -0.0397803 -0.62368
vertex -0.0129205 -0.042945 -0.629752
vertex -0.0144374 -0.0405417 -0.623377
endloop
endfacet
facet normal -0.74952 0.540562 -0.382117
outer loop
vertex -0.0144374 -0.0405417 -0.623377
vertex -0.0129205 -0.042945 -0.629752
vertex -0.0136239 -0.0437064 -0.62945
endloop
endfacet
facet normal -0.554644 0.705128 -0.441774
outer loop
vertex -0.0145133 -0.0442901 -0.629265
vertex -0.0144374 -0.0405417 -0.623377
vertex -0.0136239 -0.0437064 -0.62945
endloop
endfacet
facet normal -0.554644 0.705128 -0.441774
outer loop
vertex -0.0145133 -0.0442901 -0.629265
vertex -0.0153268 -0.0411254 -0.623192
vertex -0.0144374 -0.0405417 -0.623377
endloop
endfacet
facet normal -0.323504 0.820662 -0.471019
outer loop
vertex -0.0145133 -0.0442901 -0.629265
vertex -0.0155277 -0.044658 -0.629209
vertex -0.0153268 -0.0411254 -0.623192
endloop
endfacet
facet normal -0.323504 0.820662 -0.471019
outer loop
vertex -0.0153268 -0.0411254 -0.623192
vertex -0.0155277 -0.044658 -0.629209
vertex -0.0163412 -0.0414932 -0.623136
endloop
endfacet
facet normal -0.0689802 0.880872 -0.468301
outer loop
vertex -0.0163412 -0.0414932 -0.623136
vertex -0.0155277 -0.044658 -0.629209
vertex -0.0165978 -0.0447833 -0.629287
endloop
endfacet
facet normal 0.189805 0.880872 -0.433633
outer loop
vertex -0.0174113 -0.0416185 -0.623214
vertex -0.0165978 -0.0447833 -0.629287
vertex -0.0176507 -0.044658 -0.629493
endloop
endfacet
facet normal 0.43607 0.820662 -0.369265
outer loop
vertex -0.0184643 -0.0414932 -0.62342
vertex -0.0176507 -0.044658 -0.629493
vertex -0.0186147 -0.0442901 -0.629814
endloop
endfacet
facet normal 0.651363 0.705128 -0.280214
outer loop
vertex -0.0194282 -0.0411254 -0.623741
vertex -0.0186147 -0.0442901 -0.629814
vertex -0.0194241 -0.0437064 -0.630227
endloop
endfacet
facet normal 0.823259 0.541079 -0.171694
outer loop
vertex -0.0202376 -0.0405417 -0.624154
vertex -0.0194241 -0.0437064 -0.630227
vertex -0.020024 -0.042945 -0.630704
endloop
endfacet
facet normal 0.939127 0.339729 -0.0512397
outer loop
vertex -0.0208375 -0.0397803 -0.624631
vertex -0.020024 -0.042945 -0.630704
vertex -0.0203725 -0.0420583 -0.631213
endloop
endfacet
facet normal 0.99062 0.115971 0.0722685
outer loop
vertex -0.0211861 -0.0388936 -0.62514
vertex -0.0203725 -0.0420583 -0.631213
vertex -0.0212606 -0.037942 -0.625646
endloop
endfacet
facet normal 0.939127 0.339729 -0.0512397
outer loop
vertex -0.0211861 -0.0388936 -0.62514
vertex -0.0208375 -0.0397803 -0.624631
vertex -0.0203725 -0.0420583 -0.631213
endloop
endfacet
facet normal 0.892527 -0.339729 0.296613
outer loop
vertex -0.020242 -0.0401552 -0.632187
vertex -0.0197719 -0.0392685 -0.632586
vertex -0.0210555 -0.0369905 -0.626114
endloop
endfacet
facet normal 0.749041 -0.541079 0.382323
outer loop
vertex -0.0197719 -0.0392685 -0.632586
vertex -0.0190675 -0.0385071 -0.632888
vertex -0.0205854 -0.0361037 -0.626513
endloop
endfacet
facet normal 0.555257 -0.704726 0.441646
outer loop
vertex -0.0190675 -0.0385071 -0.632888
vertex -0.018178 -0.0379225 -0.633074
vertex -0.019881 -0.0353423 -0.626816
endloop
endfacet
facet normal 0.32269 -0.820957 0.471064
outer loop
vertex -0.018178 -0.0379225 -0.633074
vertex -0.0171636 -0.0375555 -0.633129
vertex -0.0189915 -0.0347577 -0.627001
endloop
endfacet
facet normal 0.0689801 -0.880872 0.468301
outer loop
vertex -0.0171636 -0.0375555 -0.633129
vertex -0.0160935 -0.0374302 -0.633051
vertex -0.0179771 -0.0343908 -0.627057
endloop
endfacet
facet normal -0.651921 -0.704726 0.27993
outer loop
vertex -0.0140766 -0.0379225 -0.632525
vertex -0.0132673 -0.0385071 -0.632111
vertex -0.0140808 -0.0353423 -0.626039
endloop
endfacet
facet normal -0.823666 -0.540562 0.171369
outer loop
vertex -0.0132673 -0.0385071 -0.632111
vertex -0.0126683 -0.0392685 -0.631634
vertex -0.0134818 -0.0361037 -0.625562
endloop
endfacet
facet normal 0.823259 0.541079 -0.171694
outer loop
vertex -0.0208375 -0.0397803 -0.624631
vertex -0.0202376 -0.0405417 -0.624154
vertex -0.020024 -0.042945 -0.630704
endloop
endfacet
facet normal 0.651363 0.705128 -0.280214
outer loop
vertex -0.0202376 -0.0405417 -0.624154
vertex -0.0194282 -0.0411254 -0.623741
vertex -0.0194241 -0.0437064 -0.630227
endloop
endfacet
facet normal 0.43607 0.820662 -0.369265
outer loop
vertex -0.0194282 -0.0411254 -0.623741
vertex -0.0184643 -0.0414932 -0.62342
vertex -0.0186147 -0.0442901 -0.629814
endloop
endfacet
facet normal 0.189805 0.880872 -0.433633
outer loop
vertex -0.0184643 -0.0414932 -0.62342
vertex -0.0174113 -0.0416185 -0.623214
vertex -0.0176507 -0.044658 -0.629493
endloop
endfacet
facet normal -0.0689802 0.880872 -0.468301
outer loop
vertex -0.0174113 -0.0416185 -0.623214
vertex -0.0163412 -0.0414932 -0.623136
vertex -0.0165978 -0.0447833 -0.629287
endloop
endfacet
facet normal -0.974712 0.115972 -0.191013
outer loop
vertex 0.0150974 -0.0411068 -0.626957
vertex 0.0148924 -0.0420583 -0.626488
vertex 0.0140789 -0.0388936 -0.620416
endloop
endfacet
facet normal -0.974712 0.115972 -0.191013
outer loop
vertex 0.0142839 -0.037942 -0.620884
vertex 0.0150974 -0.0411068 -0.626957
vertex 0.0140789 -0.0388936 -0.620416
endloop
endfacet
facet normal -0.99062 -0.115966 -0.0722711
outer loop
vertex 0.0142839 -0.037942 -0.620884
vertex 0.015023 -0.0401552 -0.627463
vertex 0.0150974 -0.0411068 -0.626957
endloop
endfacet
facet normal -0.99062 -0.115966 -0.0722711
outer loop
vertex 0.0142839 -0.037942 -0.620884
vertex 0.0142094 -0.0369905 -0.62139
vertex 0.015023 -0.0401552 -0.627463
endloop
endfacet
facet normal -0.939127 -0.339728 0.0512389
outer loop
vertex 0.015023 -0.0401552 -0.627463
vertex 0.0142094 -0.0369905 -0.62139
vertex 0.0146744 -0.0392685 -0.627972
endloop
endfacet
facet normal -0.939127 -0.339728 0.0512389
outer loop
vertex 0.0146744 -0.0392685 -0.627972
vertex 0.0142094 -0.0369905 -0.62139
vertex 0.0138609 -0.0361037 -0.621899
endloop
endfacet
facet normal -0.823259 -0.541079 0.171694
outer loop
vertex 0.0140745 -0.0385071 -0.628449
vertex 0.0138609 -0.0361037 -0.621899
vertex 0.013261 -0.0353423 -0.622376
endloop
endfacet
facet normal -0.651921 -0.704726 0.27993
outer loop
vertex 0.0132651 -0.0379225 -0.628862
vertex 0.013261 -0.0353423 -0.622376
vertex 0.0124516 -0.0347577 -0.622789
endloop
endfacet
facet normal -0.435297 -0.820957 0.369522
outer loop
vertex 0.0114876 -0.0343908 -0.623109
vertex 0.0132651 -0.0379225 -0.628862
vertex 0.0124516 -0.0347577 -0.622789
endloop
endfacet
facet normal -0.435297 -0.820957 0.369522
outer loop
vertex 0.0114876 -0.0343908 -0.623109
vertex 0.0123012 -0.0375555 -0.629182
vertex 0.0132651 -0.0379225 -0.628862
endloop
endfacet
facet normal -0.189806 -0.880872 0.433633
outer loop
vertex 0.0114876 -0.0343908 -0.623109
vertex 0.0112482 -0.0374302 -0.629389
vertex 0.0123012 -0.0375555 -0.629182
endloop
endfacet
facet normal -0.189806 -0.880872 0.433633
outer loop
vertex 0.0114876 -0.0343908 -0.623109
vertex 0.0104347 -0.0342655 -0.623316
vertex 0.0112482 -0.0374302 -0.629389
endloop
endfacet
facet normal 0.0689801 -0.880872 0.468301
outer loop
vertex 0.0112482 -0.0374302 -0.629389
vertex 0.0104347 -0.0342655 -0.623316
vertex 0.00936461 -0.0343908 -0.623394
endloop
endfacet
facet normal 0.322691 -0.820956 0.471064
outer loop
vertex 0.0101781 -0.0375555 -0.629467
vertex 0.00936461 -0.0343908 -0.623394
vertex 0.00835028 -0.0347577 -0.623339
endloop
endfacet
facet normal 0.555257 -0.704726 0.441646
outer loop
vertex 0.00916379 -0.0379225 -0.629411
vertex 0.00835028 -0.0347577 -0.623339
vertex 0.00746077 -0.0353423 -0.623153
endloop
endfacet
facet normal 0.74952 -0.540561 0.382117
outer loop
vertex 0.00827428 -0.0385071 -0.629226
vertex 0.00746077 -0.0353423 -0.623153
vertex 0.00757088 -0.0392685 -0.628923
endloop
endfacet
facet normal 0.555257 -0.704726 0.441646
outer loop
vertex 0.00827428 -0.0385071 -0.629226
vertex 0.00916379 -0.0379225 -0.629411
vertex 0.00746077 -0.0353423 -0.623153
endloop
endfacet
facet normal -0.892528 0.339728 -0.296612
outer loop
vertex 0.0148924 -0.0420583 -0.626488
vertex 0.0144223 -0.042945 -0.626089
vertex 0.0140789 -0.0388936 -0.620416
endloop
endfacet
facet normal -0.892528 0.339728 -0.296612
outer loop
vertex 0.0140789 -0.0388936 -0.620416
vertex 0.0144223 -0.042945 -0.626089
vertex 0.0136088 -0.0397803 -0.620017
endloop
endfacet
facet normal -0.749041 0.541079 -0.382323
outer loop
vertex 0.0136088 -0.0397803 -0.620017
vertex 0.0144223 -0.042945 -0.626089
vertex 0.0137179 -0.0437064 -0.625787
endloop
endfacet
facet normal -0.554644 0.705128 -0.441774
outer loop
vertex 0.0129044 -0.0405417 -0.619714
vertex 0.0137179 -0.0437064 -0.625787
vertex 0.0128284 -0.0442901 -0.625602
endloop
endfacet
facet normal -0.323504 0.820662 -0.471019
outer loop
vertex 0.0120149 -0.0411254 -0.619529
vertex 0.0128284 -0.0442901 -0.625602
vertex 0.011814 -0.044658 -0.625546
endloop
endfacet
facet normal -0.0689802 0.880872 -0.468301
outer loop
vertex 0.0110005 -0.0414932 -0.619473
vertex 0.011814 -0.044658 -0.625546
vertex 0.0107439 -0.0447833 -0.625624
endloop
endfacet
facet normal 0.189805 0.880872 -0.433633
outer loop
vertex 0.00993042 -0.0416185 -0.619551
vertex 0.0107439 -0.0447833 -0.625624
vertex 0.00969101 -0.044658 -0.62583
endloop
endfacet
facet normal 0.436071 0.820662 -0.369265
outer loop
vertex 0.00887749 -0.0414932 -0.619758
vertex 0.00969101 -0.044658 -0.62583
vertex 0.00872707 -0.0442901 -0.626151
endloop
endfacet
facet normal 0.651363 0.705128 -0.280214
outer loop
vertex 0.00791356 -0.0411254 -0.620079
vertex 0.00872707 -0.0442901 -0.626151
vertex 0.00791769 -0.0437064 -0.626564
endloop
endfacet
facet normal 0.823666 0.540561 -0.171369
outer loop
vertex 0.00710418 -0.0405417 -0.620491
vertex 0.00791769 -0.0437064 -0.626564
vertex 0.00650522 -0.0397803 -0.620968
endloop
endfacet
facet normal 0.651363 0.705128 -0.280214
outer loop
vertex 0.00710418 -0.0405417 -0.620491
vertex 0.00791356 -0.0411254 -0.620079
vertex 0.00791769 -0.0437064 -0.626564
endloop
endfacet
facet normal 0.823666 0.540561 -0.171369
outer loop
vertex 0.00791769 -0.0437064 -0.626564
vertex 0.00731873 -0.042945 -0.627041
vertex 0.00650522 -0.0397803 -0.620968
endloop
endfacet
facet normal 0.93885 0.340431 -0.0516422
outer loop
vertex 0.00650522 -0.0397803 -0.620968
vertex 0.00731873 -0.042945 -0.627041
vertex 0.0061557 -0.0388936 -0.621477
endloop
endfacet
facet normal 0.93885 0.340431 -0.0516422
outer loop
vertex 0.0061557 -0.0388936 -0.621477
vertex 0.00731873 -0.042945 -0.627041
vertex 0.00696921 -0.0420583 -0.62755
endloop
endfacet
facet normal 0.99062 0.115972 0.0722677
outer loop
vertex 0.0060812 -0.037942 -0.621983
vertex 0.00696921 -0.0420583 -0.62755
vertex 0.00689471 -0.0411068 -0.628056
endloop
endfacet
facet normal 0.974714 -0.115966 0.19101
outer loop
vertex 0.00709973 -0.0401552 -0.628524
vertex 0.0060812 -0.037942 -0.621983
vertex 0.00689471 -0.0411068 -0.628056
endloop
endfacet
facet normal 0.974714 -0.115966 0.19101
outer loop
vertex 0.00709973 -0.0401552 -0.628524
vertex 0.00628622 -0.0369905 -0.622451
vertex 0.0060812 -0.037942 -0.621983
endloop
endfacet
facet normal 0.892155 -0.340431 0.296928
outer loop
vertex 0.00709973 -0.0401552 -0.628524
vertex 0.00757088 -0.0392685 -0.628923
vertex 0.00628622 -0.0369905 -0.622451
endloop
endfacet
facet normal 0.892155 -0.340431 0.296928
outer loop
vertex 0.00628622 -0.0369905 -0.622451
vertex 0.00757088 -0.0392685 -0.628923
vertex 0.00675737 -0.0361037 -0.62285
endloop
endfacet
facet normal 0.74952 -0.540561 0.382117
outer loop
vertex 0.00675737 -0.0361037 -0.62285
vertex 0.00757088 -0.0392685 -0.628923
vertex 0.00746077 -0.0353423 -0.623153
endloop
endfacet
facet normal 0.322691 -0.820956 0.471064
outer loop
vertex 0.00916379 -0.0379225 -0.629411
vertex 0.0101781 -0.0375555 -0.629467
vertex 0.00835028 -0.0347577 -0.623339
endloop
endfacet
facet normal 0.0689801 -0.880872 0.468301
outer loop
vertex 0.0101781 -0.0375555 -0.629467
vertex 0.0112482 -0.0374302 -0.629389
vertex 0.00936461 -0.0343908 -0.623394
endloop
endfacet
facet normal -0.651921 -0.704726 0.27993
outer loop
vertex 0.0132651 -0.0379225 -0.628862
vertex 0.0140745 -0.0385071 -0.628449
vertex 0.013261 -0.0353423 -0.622376
endloop
endfacet
facet normal -0.823259 -0.541079 0.171694
outer loop
vertex 0.0140745 -0.0385071 -0.628449
vertex 0.0146744 -0.0392685 -0.627972
vertex 0.0138609 -0.0361037 -0.621899
endloop
endfacet
facet normal 0.99062 0.115972 0.0722677
outer loop
vertex 0.0060812 -0.037942 -0.621983
vertex 0.0061557 -0.0388936 -0.621477
vertex 0.00696921 -0.0420583 -0.62755
endloop
endfacet
facet normal 0.436071 0.820662 -0.369265
outer loop
vertex 0.00887749 -0.0414932 -0.619758
vertex 0.00872707 -0.0442901 -0.626151
vertex 0.00791356 -0.0411254 -0.620079
endloop
endfacet
facet normal 0.189805 0.880872 -0.433633
outer loop
vertex 0.00887749 -0.0414932 -0.619758
vertex 0.00993042 -0.0416185 -0.619551
vertex 0.00969101 -0.044658 -0.62583
endloop
endfacet
facet normal -0.0689802 0.880872 -0.468301
outer loop
vertex 0.00993042 -0.0416185 -0.619551
vertex 0.0110005 -0.0414932 -0.619473
vertex 0.0107439 -0.0447833 -0.625624
endloop
endfacet
facet normal -0.323504 0.820662 -0.471019
outer loop
vertex 0.0110005 -0.0414932 -0.619473
vertex 0.0120149 -0.0411254 -0.619529
vertex 0.011814 -0.044658 -0.625546
endloop
endfacet
facet normal -0.554644 0.705128 -0.441774
outer loop
vertex 0.0120149 -0.0411254 -0.619529
vertex 0.0129044 -0.0405417 -0.619714
vertex 0.0128284 -0.0442901 -0.625602
endloop
endfacet
facet normal -0.749041 0.541079 -0.382323
outer loop
vertex 0.0129044 -0.0405417 -0.619714
vertex 0.0136088 -0.0397803 -0.620017
vertex 0.0137179 -0.0437064 -0.625787
endloop
endfacet
facet normal -0.117969 0.458925 0.880608
outer loop
vertex -0.0192192 -0.0310394 -0.62897
vertex -0.0158541 -0.0343908 -0.626772
vertex -0.0100343 -0.0337138 -0.626345
endloop
endfacet
facet normal -0.117968 0.458926 0.880608
outer loop
vertex -0.0192192 -0.0310394 -0.62897
vertex -0.016907 -0.0342655 -0.626979
vertex -0.0158541 -0.0343908 -0.626772
endloop
endfacet
facet normal -0.117969 0.458925 0.880608
outer loop
vertex -0.0192192 -0.0310394 -0.62897
vertex -0.0179771 -0.0343908 -0.627057
vertex -0.016907 -0.0342655 -0.626979
endloop
endfacet
facet normal -0.117961 0.458928 0.880608
outer loop
vertex -0.0192192 -0.0310394 -0.62897
vertex -0.0189915 -0.0347577 -0.627001
vertex -0.0179771 -0.0343908 -0.627057
endloop
endfacet
facet normal -0.117972 0.458927 0.880607
outer loop
vertex -0.0192192 -0.0310394 -0.62897
vertex -0.019881 -0.0353423 -0.626816
vertex -0.0189915 -0.0347577 -0.627001
endloop
endfacet
facet normal -0.117969 0.458927 0.880607
outer loop
vertex -0.0192192 -0.0310394 -0.62897
vertex -0.0273012 -0.0345116 -0.628243
vertex -0.019881 -0.0353423 -0.626816
endloop
endfacet
facet normal -0.117969 0.458926 0.880608
outer loop
vertex -0.0192192 -0.0310394 -0.62897
vertex -0.0271939 -0.0263136 -0.632501
vertex -0.0273012 -0.0345116 -0.628243
endloop
endfacet
facet normal -0.117966 0.458926 0.880608
outer loop
vertex -0.0273012 -0.0345116 -0.628243
vertex -0.0271939 -0.0263136 -0.632501
vertex -0.0297012 -0.0325516 -0.629586
endloop
endfacet
facet normal -0.117968 0.458927 0.880608
outer loop
vertex -0.0297012 -0.0325516 -0.629586
vertex -0.0271939 -0.0263136 -0.632501
vertex -0.0383932 -0.0253799 -0.634488
endloop
endfacet
facet normal -0.117968 0.458927 0.880607
outer loop
vertex -0.0383932 -0.0253799 -0.634488
vertex -0.0271939 -0.0263136 -0.632501
vertex -0.0334338 -0.0198491 -0.636706
endloop
endfacet
facet normal -0.117968 0.458926 0.880608
outer loop
vertex -0.0446414 -0.016361 -0.640025
vertex -0.0334338 -0.0198491 -0.636706
vertex -0.0375261 -0.0120714 -0.641307
endloop
endfacet
facet normal -0.117968 0.458926 0.880608
outer loop
vertex -0.0480396 -0.00608045 -0.645838
vertex -0.0375261 -0.0120714 -0.641307
vertex -0.0391996 -0.00349407 -0.646001
endloop
endfacet
facet normal -0.117969 0.458927 0.880608
outer loop
vertex -0.0483691 0.00479537 -0.65155
vertex -0.0391996 -0.00349407 -0.646001
vertex -0.0383466 0.00531689 -0.650479
endloop
endfacet
facet normal -0.117968 0.458927 0.880608
outer loop
vertex -0.0456068 0.0155619 -0.656791
vertex -0.0383466 0.00531689 -0.650479
vertex -0.0350206 0.0137805 -0.654444
endloop
endfacet
facet normal -0.117968 0.458926 0.880608
outer loop
vertex -0.0399332 0.0255226 -0.661222
vertex -0.0350206 0.0137805 -0.654444
vertex -0.0294435 0.0213379 -0.657636
endloop
endfacet
facet normal -0.117969 0.458926 0.880608
outer loop
vertex -0.0317159 0.0340306 -0.664555
vertex -0.0294435 0.0213379 -0.657636
vertex -0.0219814 0.0274905 -0.659842
endloop
endfacet
facet normal -0.117968 0.458927 0.880608
outer loop
vertex -0.0214862 0.0405351 -0.666574
vertex -0.0219814 0.0274905 -0.659842
vertex -0.0131271 0.0318326 -0.660919
endloop
endfacet
facet normal -0.117968 0.458926 0.880608
outer loop
vertex -0.00990741 0.0446141 -0.667149
vertex -0.0131271 0.0318326 -0.660919
vertex -0.00346503 0.0340777 -0.660795
endloop
endfacet
facet normal -0.117968 0.458927 0.880608
outer loop
vertex 0.00226897 0.0460037 -0.666242
vertex -0.00346503 0.0340777 -0.660795
vertex 0.00636713 0.0340777 -0.659478
endloop
endfacet
facet normal -0.117969 0.458926 0.880608
outer loop
vertex 0.0142548 0.0446141 -0.663912
vertex 0.00636713 0.0340777 -0.659478
vertex 0.0157212 0.0318326 -0.657054
endloop
endfacet
facet normal -0.117968 0.458927 0.880608
outer loop
vertex 0.0252741 0.0405351 -0.66031
vertex 0.0157212 0.0318326 -0.657054
vertex 0.02398 0.0274905 -0.653685
endloop
endfacet
facet normal -0.117968 0.458926 0.880608
outer loop
vertex 0.0346116 0.0340306 -0.655669
vertex 0.02398 0.0274905 -0.653685
vertex 0.0305981 0.0213379 -0.649592
endloop
endfacet
facet normal -0.117969 0.458926 0.880608
outer loop
vertex 0.0416619 0.0255226 -0.650291
vertex 0.0305981 0.0213379 -0.649592
vertex 0.0351386 0.0137805 -0.645045
endloop
endfacet
facet normal -0.117969 0.458927 0.880607
outer loop
vertex 0.0459691 0.0155619 -0.644523
vertex 0.0351386 0.0137805 -0.645045
vertex 0.0373036 0.00531689 -0.640345
endloop
endfacet
facet normal -0.117968 0.458927 0.880608
outer loop
vertex 0.0472547 0.00479537 -0.63874
vertex 0.0373036 0.00531689 -0.640345
vertex 0.0369481 -0.00349407 -0.6358
endloop
endfacet
facet normal -0.117969 0.458926 0.880608
outer loop
vertex 0.0454334 -0.00608045 -0.633316
vertex 0.0369481 -0.00349407 -0.6358
vertex 0.0340981 -0.0120714 -0.631712
endloop
endfacet
facet normal -0.117969 0.458926 0.880608
outer loop
vertex 0.0406249 -0.016361 -0.628602
vertex 0.0340981 -0.0120714 -0.631712
vertex 0.028939 -0.0198491 -0.62835
endloop
endfacet
facet normal -0.117969 0.458927 0.880607
outer loop
vertex 0.0331397 -0.0253799 -0.624905
vertex 0.028939 -0.0198491 -0.62835
vertex 0.0218123 -0.0263136 -0.625936
endloop
endfacet
facet normal -0.117971 0.458926 0.880607
outer loop
vertex 0.0234639 -0.0325516 -0.622464
vertex 0.0218123 -0.0263136 -0.625936
vertex 0.0207951 -0.0345116 -0.6218
endloop
endfacet
facet normal -0.117969 0.458927 0.880607
outer loop
vertex 0.0234639 -0.0325516 -0.622464
vertex 0.0331397 -0.0253799 -0.624905
vertex 0.0218123 -0.0263136 -0.625936
endloop
endfacet
facet normal -0.117968 0.458926 0.880608
outer loop
vertex 0.0218123 -0.0263136 -0.625936
vertex 0.0131893 -0.0310394 -0.624628
vertex 0.0207951 -0.0345116 -0.6218
endloop
endfacet
facet normal -0.117968 0.458927 0.880608
outer loop
vertex 0.0207951 -0.0345116 -0.6218
vertex 0.0131893 -0.0310394 -0.624628
vertex 0.013261 -0.0353423 -0.622376
endloop
endfacet
facet normal -0.117967 0.458924 0.880609
outer loop
vertex 0.0138609 -0.0361037 -0.621899
vertex 0.0207951 -0.0345116 -0.6218
vertex 0.013261 -0.0353423 -0.622376
endloop
endfacet
facet normal -0.117968 0.458926 0.880608
outer loop
vertex 0.0138609 -0.0361037 -0.621899
vertex 0.0186991 -0.0369647 -0.620802
vertex 0.0207951 -0.0345116 -0.6218
endloop
endfacet
facet normal -0.117969 0.458923 0.880609
outer loop
vertex 0.0138609 -0.0361037 -0.621899
vertex 0.0142094 -0.0369905 -0.62139
vertex 0.0186991 -0.0369647 -0.620802
endloop
endfacet
facet normal -0.117968 0.458932 0.880605
outer loop
vertex 0.0186991 -0.0369647 -0.620802
vertex 0.0142094 -0.0369905 -0.62139
vertex 0.0142839 -0.037942 -0.620884
endloop
endfacet
facet normal -0.117971 0.458924 0.880609
outer loop
vertex 0.0173029 -0.0397634 -0.619531
vertex 0.0142839 -0.037942 -0.620884
vertex 0.0140789 -0.0388936 -0.620416
endloop
endfacet
facet normal -0.117968 0.458932 0.880605
outer loop
vertex 0.0136088 -0.0397803 -0.620017
vertex 0.0173029 -0.0397634 -0.619531
vertex 0.0140789 -0.0388936 -0.620416
endloop
endfacet
facet normal -0.117968 0.458926 0.880608
outer loop
vertex 0.0136088 -0.0397803 -0.620017
vertex 0.0166893 -0.0427415 -0.618061
vertex 0.0173029 -0.0397634 -0.619531
endloop
endfacet
facet normal -0.11797 0.458924 0.880609
outer loop
vertex 0.0136088 -0.0397803 -0.620017
vertex 0.0129044 -0.0405417 -0.619714
vertex 0.0166893 -0.0427415 -0.618061
endloop
endfacet
facet normal -0.11797 0.458925 0.880608
outer loop
vertex 0.0166893 -0.0427415 -0.618061
vertex 0.0129044 -0.0405417 -0.619714
vertex 0.0120149 -0.0411254 -0.619529
endloop
endfacet
facet normal -0.11797 0.458925 0.880608
outer loop
vertex 0.0166823 -0.0428437 -0.618008
vertex 0.0120149 -0.0411254 -0.619529
vertex 0.0110005 -0.0414932 -0.619473
endloop
endfacet
facet normal -0.117969 0.458927 0.880607
outer loop
vertex 0.00993042 -0.0416185 -0.619551
vertex 0.0166823 -0.0428437 -0.618008
vertex 0.0110005 -0.0414932 -0.619473
endloop
endfacet
facet normal -0.117968 0.45893 0.880606
outer loop
vertex 0.00993042 -0.0416185 -0.619551
vertex 0.00301145 -0.0428437 -0.61984
vertex 0.0166823 -0.0428437 -0.618008
endloop
endfacet
facet normal -0.117968 0.458927 0.880607
outer loop
vertex 0.00993042 -0.0416185 -0.619551
vertex 0.00887749 -0.0414932 -0.619758
vertex 0.00301145 -0.0428437 -0.61984
endloop
endfacet
facet normal -0.117967 0.458925 0.880608
outer loop
vertex 0.00301145 -0.0428437 -0.61984
vertex 0.00887749 -0.0414932 -0.619758
vertex 0.00791356 -0.0411254 -0.620079
endloop
endfacet
facet normal -0.117967 0.458925 0.880609
outer loop
vertex 0.00710418 -0.0405417 -0.620491
vertex 0.00301145 -0.0428437 -0.61984
vertex 0.00791356 -0.0411254 -0.620079
endloop
endfacet
facet normal -0.117967 0.458924 0.880609
outer loop
vertex 0.00710418 -0.0405417 -0.620491
vertex 0.00650522 -0.0397803 -0.620968
vertex 0.00301145 -0.0428437 -0.61984
endloop
endfacet
facet normal -0.117973 0.45893 0.880605
outer loop
vertex 0.00301145 -0.0428437 -0.61984
vertex 0.00650522 -0.0397803 -0.620968
vertex 0.0061557 -0.0388936 -0.621477
endloop
endfacet
facet normal -0.117963 0.458924 0.88061
outer loop
vertex 0.0060812 -0.037942 -0.621983
vertex 0.00301145 -0.0428437 -0.61984
vertex 0.0061557 -0.0388936 -0.621477
endloop
endfacet
facet normal -0.117969 0.458927 0.880608
outer loop
vertex 0.0060812 -0.037942 -0.621983
vertex 0.00363761 -0.0337138 -0.624514
vertex 0.00301145 -0.0428437 -0.61984
endloop
endfacet
facet normal -0.117961 0.458931 0.880607
outer loop
vertex 0.0060812 -0.037942 -0.621983
vertex 0.00628622 -0.0369905 -0.622451
vertex 0.00363761 -0.0337138 -0.624514
endloop
endfacet
facet normal -0.117971 0.458924 0.880609
outer loop
vertex 0.00363761 -0.0337138 -0.624514
vertex 0.00628622 -0.0369905 -0.622451
vertex 0.00675737 -0.0361037 -0.62285
endloop
endfacet
facet normal -0.11797 0.458924 0.880608
outer loop
vertex 0.00746077 -0.0353423 -0.623153
vertex 0.00363761 -0.0337138 -0.624514
vertex 0.00675737 -0.0361037 -0.62285
endloop
endfacet
facet normal -0.11797 0.458925 0.880608
outer loop
vertex 0.00746077 -0.0353423 -0.623153
vertex 0.00835028 -0.0347577 -0.623339
vertex 0.00363761 -0.0337138 -0.624514
endloop
endfacet
facet normal -0.117965 0.45894 0.880601
outer loop
vertex 0.00363761 -0.0337138 -0.624514
vertex 0.00835028 -0.0347577 -0.623339
vertex 0.00936461 -0.0343908 -0.623394
endloop
endfacet
facet normal -0.117969 0.458926 0.880608
outer loop
vertex 0.0131893 -0.0310394 -0.624628
vertex 0.00936461 -0.0343908 -0.623394
vertex 0.0104347 -0.0342655 -0.623316
endloop
endfacet
facet normal -0.117968 0.458925 0.880608
outer loop
vertex 0.0114876 -0.0343908 -0.623109
vertex 0.0131893 -0.0310394 -0.624628
vertex 0.0104347 -0.0342655 -0.623316
endloop
endfacet
facet normal -0.117976 0.458928 0.880606
outer loop
vertex 0.0114876 -0.0343908 -0.623109
vertex 0.0124516 -0.0347577 -0.622789
vertex 0.0131893 -0.0310394 -0.624628
endloop
endfacet
facet normal -0.117965 0.458927 0.880608
outer loop
vertex 0.0131893 -0.0310394 -0.624628
vertex 0.0124516 -0.0347577 -0.622789
vertex 0.013261 -0.0353423 -0.622376
endloop
endfacet
facet normal -0.117968 0.458925 0.880608
outer loop
vertex 0.00363761 -0.0337138 -0.624514
vertex 0.00936461 -0.0343908 -0.623394
vertex 0.0131893 -0.0310394 -0.624628
endloop
endfacet
facet normal -0.117971 0.458923 0.880609
outer loop
vertex 0.0166823 -0.0428437 -0.618008
vertex 0.0166893 -0.0427415 -0.618061
vertex 0.0120149 -0.0411254 -0.619529
endloop
endfacet
facet normal -0.117967 0.458929 0.880607
outer loop
vertex 0.0173029 -0.0397634 -0.619531
vertex 0.0186991 -0.0369647 -0.620802
vertex 0.0142839 -0.037942 -0.620884
endloop
endfacet
facet normal -0.117969 0.458927 0.880607
outer loop
vertex 0.0331397 -0.0253799 -0.624905
vertex 0.0406249 -0.016361 -0.628602
vertex 0.028939 -0.0198491 -0.62835
endloop
endfacet
facet normal -0.117969 0.458926 0.880608
outer loop
vertex 0.0406249 -0.016361 -0.628602
vertex 0.0454334 -0.00608045 -0.633316
vertex 0.0340981 -0.0120714 -0.631712
endloop
endfacet
facet normal -0.117968 0.458927 0.880608
outer loop
vertex 0.0369481 -0.00349407 -0.6358
vertex 0.0454334 -0.00608045 -0.633316
vertex 0.0472547 0.00479537 -0.63874
endloop
endfacet
facet normal -0.117968 0.458926 0.880608
outer loop
vertex 0.0472547 0.00479537 -0.63874
vertex 0.0459691 0.0155619 -0.644523
vertex 0.0373036 0.00531689 -0.640345
endloop
endfacet
facet normal -0.117969 0.458926 0.880608
outer loop
vertex 0.0416619 0.0255226 -0.650291
vertex 0.0351386 0.0137805 -0.645045
vertex 0.0459691 0.0155619 -0.644523
endloop
endfacet
facet normal -0.117969 0.458926 0.880608
outer loop
vertex 0.0416619 0.0255226 -0.650291
vertex 0.0346116 0.0340306 -0.655669
vertex 0.0305981 0.0213379 -0.649592
endloop
endfacet
facet normal -0.117968 0.458927 0.880608
outer loop
vertex 0.0346116 0.0340306 -0.655669
vertex 0.0252741 0.0405351 -0.66031
vertex 0.02398 0.0274905 -0.653685
endloop
endfacet
facet normal -0.117968 0.458926 0.880608
outer loop
vertex 0.0252741 0.0405351 -0.66031
vertex 0.0142548 0.0446141 -0.663912
vertex 0.0157212 0.0318326 -0.657054
endloop
endfacet
facet normal -0.117969 0.458926 0.880608
outer loop
vertex 0.0142548 0.0446141 -0.663912
vertex 0.00226897 0.0460037 -0.666242
vertex 0.00636713 0.0340777 -0.659478
endloop
endfacet
facet normal -0.117968 0.458926 0.880608
outer loop
vertex 0.00226897 0.0460037 -0.666242
vertex -0.00990741 0.0446141 -0.667149
vertex -0.00346503 0.0340777 -0.660795
endloop
endfacet
facet normal -0.117969 0.458926 0.880608
outer loop
vertex -0.00990741 0.0446141 -0.667149
vertex -0.0214862 0.0405351 -0.666574
vertex -0.0131271 0.0318326 -0.660919
endloop
endfacet
facet normal -0.117968 0.458927 0.880608
outer loop
vertex -0.0214862 0.0405351 -0.666574
vertex -0.0317159 0.0340306 -0.664555
vertex -0.0219814 0.0274905 -0.659842
endloop
endfacet
facet normal -0.117968 0.458926 0.880608
outer loop
vertex -0.0399332 0.0255226 -0.661222
vertex -0.0294435 0.0213379 -0.657636
vertex -0.0317159 0.0340306 -0.664555
endloop
endfacet
facet normal -0.117968 0.458926 0.880608
outer loop
vertex -0.0399332 0.0255226 -0.661222
vertex -0.0456068 0.0155619 -0.656791
vertex -0.0350206 0.0137805 -0.654444
endloop
endfacet
facet normal -0.117969 0.458926 0.880608
outer loop
vertex -0.0483691 0.00479537 -0.65155
vertex -0.0383466 0.00531689 -0.650479
vertex -0.0456068 0.0155619 -0.656791
endloop
endfacet
facet normal -0.117969 0.458927 0.880608
outer loop
vertex -0.0480396 -0.00608045 -0.645838
vertex -0.0391996 -0.00349407 -0.646001
vertex -0.0483691 0.00479537 -0.65155
endloop
endfacet
facet normal -0.117968 0.458926 0.880608
outer loop
vertex -0.0446414 -0.016361 -0.640025
vertex -0.0375261 -0.0120714 -0.641307
vertex -0.0480396 -0.00608045 -0.645838
endloop
endfacet
facet normal -0.117968 0.458927 0.880607
outer loop
vertex -0.0383932 -0.0253799 -0.634488
vertex -0.0334338 -0.0198491 -0.636706
vertex -0.0446414 -0.016361 -0.640025
endloop
endfacet
facet normal -0.117969 0.458926 0.880608
outer loop
vertex -0.0255417 -0.0369647 -0.626729
vertex -0.0205854 -0.0361037 -0.626513
vertex -0.0273012 -0.0345116 -0.628243
endloop
endfacet
facet normal -0.117969 0.458923 0.880609
outer loop
vertex -0.0255417 -0.0369647 -0.626729
vertex -0.0210555 -0.0369905 -0.626114
vertex -0.0205854 -0.0361037 -0.626513
endloop
endfacet
facet normal -0.117968 0.458932 0.880605
outer loop
vertex -0.0255417 -0.0369647 -0.626729
vertex -0.0212606 -0.037942 -0.625646
vertex -0.0210555 -0.0369905 -0.626114
endloop
endfacet
facet normal -0.117969 0.458929 0.880607
outer loop
vertex -0.0255417 -0.0369647 -0.626729
vertex -0.0245294 -0.0397634 -0.625134
vertex -0.0212606 -0.037942 -0.625646
endloop
endfacet
facet normal -0.117966 0.458924 0.88061
outer loop
vertex -0.0212606 -0.037942 -0.625646
vertex -0.0245294 -0.0397634 -0.625134
vertex -0.0211861 -0.0388936 -0.62514
endloop
endfacet
facet normal -0.117968 0.458932 0.880605
outer loop
vertex -0.0211861 -0.0388936 -0.62514
vertex -0.0245294 -0.0397634 -0.625134
vertex -0.0208375 -0.0397803 -0.624631
endloop
endfacet
facet normal -0.117968 0.458926 0.880608
outer loop
vertex -0.0208375 -0.0397803 -0.624631
vertex -0.0245294 -0.0397634 -0.625134
vertex -0.0243243 -0.0427415 -0.623555
endloop
endfacet
facet normal -0.117967 0.458925 0.880609
outer loop
vertex -0.0202376 -0.0405417 -0.624154
vertex -0.0243243 -0.0427415 -0.623555
vertex -0.0194282 -0.0411254 -0.623741
endloop
endfacet
facet normal -0.117967 0.458924 0.880609
outer loop
vertex -0.0202376 -0.0405417 -0.624154
vertex -0.0208375 -0.0397803 -0.624631
vertex -0.0243243 -0.0427415 -0.623555
endloop
endfacet
facet normal -0.117967 0.458923 0.88061
outer loop
vertex -0.0243313 -0.0428437 -0.623503
vertex -0.0194282 -0.0411254 -0.623741
vertex -0.0243243 -0.0427415 -0.623555
endloop
endfacet
facet normal -0.117967 0.458925 0.880608
outer loop
vertex -0.0243313 -0.0428437 -0.623503
vertex -0.0184643 -0.0414932 -0.62342
vertex -0.0194282 -0.0411254 -0.623741
endloop
endfacet
facet normal -0.117968 0.458927 0.880607
outer loop
vertex -0.0243313 -0.0428437 -0.623503
vertex -0.0174113 -0.0416185 -0.623214
vertex -0.0184643 -0.0414932 -0.62342
endloop
endfacet
facet normal -0.117968 0.45893 0.880606
outer loop
vertex -0.0243313 -0.0428437 -0.623503
vertex -0.0106604 -0.0428437 -0.621671
vertex -0.0174113 -0.0416185 -0.623214
endloop
endfacet
facet normal -0.117969 0.458927 0.880607
outer loop
vertex -0.0174113 -0.0416185 -0.623214
vertex -0.0106604 -0.0428437 -0.621671
vertex -0.0163412 -0.0414932 -0.623136
endloop
endfacet
facet normal -0.11797 0.458925 0.880608
outer loop
vertex -0.0163412 -0.0414932 -0.623136
vertex -0.0106604 -0.0428437 -0.621671
vertex -0.0153268 -0.0411254 -0.623192
endloop
endfacet
facet normal -0.11797 0.458925 0.880608
outer loop
vertex -0.0153268 -0.0411254 -0.623192
vertex -0.0106604 -0.0428437 -0.621671
vertex -0.0144374 -0.0405417 -0.623377
endloop
endfacet
facet normal -0.11797 0.458924 0.880609
outer loop
vertex -0.0144374 -0.0405417 -0.623377
vertex -0.0106604 -0.0428437 -0.621671
vertex -0.013734 -0.0397803 -0.62368
endloop
endfacet
facet normal -0.117963 0.45893 0.880606
outer loop
vertex -0.013734 -0.0397803 -0.62368
vertex -0.0106604 -0.0428437 -0.621671
vertex -0.0132628 -0.0388936 -0.624079
endloop
endfacet
facet normal -0.117974 0.458924 0.880608
outer loop
vertex -0.0132628 -0.0388936 -0.624079
vertex -0.0106604 -0.0428437 -0.621671
vertex -0.0130578 -0.037942 -0.624547
endloop
endfacet
facet normal -0.117968 0.458927 0.880608
outer loop
vertex -0.0130578 -0.037942 -0.624547
vertex -0.0106604 -0.0428437 -0.621671
vertex -0.0100343 -0.0337138 -0.626345
endloop
endfacet
facet normal -0.117966 0.458924 0.880609
outer loop
vertex -0.0131323 -0.0369905 -0.625053
vertex -0.0100343 -0.0337138 -0.626345
vertex -0.0134818 -0.0361037 -0.625562
endloop
endfacet
facet normal -0.117975 0.458931 0.880605
outer loop
vertex -0.0131323 -0.0369905 -0.625053
vertex -0.0130578 -0.037942 -0.624547
vertex -0.0100343 -0.0337138 -0.626345
endloop
endfacet
facet normal -0.11797 0.458924 0.880609
outer loop
vertex -0.0205854 -0.0361037 -0.626513
vertex -0.019881 -0.0353423 -0.626816
vertex -0.0273012 -0.0345116 -0.628243
endloop
endfacet
facet normal -0.11797 0.45894 0.880601
outer loop
vertex -0.0158541 -0.0343908 -0.626772
vertex -0.0148901 -0.0347577 -0.626452
vertex -0.0100343 -0.0337138 -0.626345
endloop
endfacet
facet normal -0.117967 0.458925 0.880609
outer loop
vertex -0.0100343 -0.0337138 -0.626345
vertex -0.0148901 -0.0347577 -0.626452
vertex -0.0140808 -0.0353423 -0.626039
endloop
endfacet
facet normal -0.117967 0.458924 0.880609
outer loop
vertex -0.0134818 -0.0361037 -0.625562
vertex -0.0100343 -0.0337138 -0.626345
vertex -0.0140808 -0.0353423 -0.626039
endloop
endfacet
facet normal -0.991146 0 -0.132776
outer loop
vertex -0.0235178 -0.0460084 -0.629575
vertex -0.0243313 -0.0428437 -0.623503
vertex -0.0235108 -0.0459063 -0.629628
endloop
endfacet
facet normal -0.991146 0 -0.132776
outer loop
vertex -0.0235108 -0.0459063 -0.629628
vertex -0.0243313 -0.0428437 -0.623503
vertex -0.0243243 -0.0427415 -0.623555
endloop
endfacet
facet normal -0.991159 -0.108648 -0.0761569
outer loop
vertex -0.0235108 -0.0459063 -0.629628
vertex -0.0243243 -0.0427415 -0.623555
vertex -0.0237159 -0.0429281 -0.631207
endloop
endfacet
facet normal -0.991159 -0.108648 -0.0761569
outer loop
vertex -0.0237159 -0.0429281 -0.631207
vertex -0.0243243 -0.0427415 -0.623555
vertex -0.0245294 -0.0397634 -0.625134
endloop
endfacet
facet normal -0.946669 -0.319739 0.0398115
outer loop
vertex -0.0255417 -0.0369647 -0.626729
vertex -0.0237159 -0.0429281 -0.631207
vertex -0.0245294 -0.0397634 -0.625134
endloop
endfacet
facet normal -0.946669 -0.319739 0.0398115
outer loop
vertex -0.0255417 -0.0369647 -0.626729
vertex -0.0247282 -0.0401295 -0.632801
vertex -0.0237159 -0.0429281 -0.631207
endloop
endfacet
facet normal -0.845372 -0.511676 0.153408
outer loop
vertex -0.0255417 -0.0369647 -0.626729
vertex -0.0273012 -0.0345116 -0.628243
vertex -0.0247282 -0.0401295 -0.632801
endloop
endfacet
facet normal -0.845372 -0.511676 0.153408
outer loop
vertex -0.0247282 -0.0401295 -0.632801
vertex -0.0273012 -0.0345116 -0.628243
vertex -0.0264877 -0.0376764 -0.634315
endloop
endfacet
facet normal -0.693584 -0.672717 0.257667
outer loop
vertex -0.0264877 -0.0376764 -0.634315
vertex -0.0273012 -0.0345116 -0.628243
vertex -0.0297012 -0.0325516 -0.629586
endloop
endfacet
facet normal -0.693584 -0.672717 0.257667
outer loop
vertex -0.0288876 -0.0357164 -0.635658
vertex -0.0264877 -0.0376764 -0.634315
vertex -0.0297012 -0.0325516 -0.629586
endloop
endfacet
facet normal -0.696986 -0.669925 0.255757
outer loop
vertex -0.0288876 -0.0357164 -0.635658
vertex -0.0297012 -0.0325516 -0.629586
vertex -0.0375797 -0.0285446 -0.64056
endloop
endfacet
facet normal -0.696986 -0.669925 0.255757
outer loop
vertex -0.0375797 -0.0285446 -0.64056
vertex -0.0297012 -0.0325516 -0.629586
vertex -0.0383932 -0.0253799 -0.634488
endloop
endfacet
facet normal -0.853003 -0.500851 0.146744
outer loop
vertex -0.0446414 -0.016361 -0.640025
vertex -0.0375797 -0.0285446 -0.64056
vertex -0.0383932 -0.0253799 -0.634488
endloop
endfacet
facet normal -0.853003 -0.500851 0.146744
outer loop
vertex -0.0446414 -0.016361 -0.640025
vertex -0.0438279 -0.0195257 -0.646098
vertex -0.0375797 -0.0285446 -0.64056
endloop
endfacet
facet normal -0.953739 -0.299308 0.0282169
outer loop
vertex -0.0446414 -0.016361 -0.640025
vertex -0.0480396 -0.00608045 -0.645838
vertex -0.0438279 -0.0195257 -0.646098
endloop
endfacet
facet normal -0.953739 -0.299308 0.0282169
outer loop
vertex -0.0438279 -0.0195257 -0.646098
vertex -0.0480396 -0.00608045 -0.645838
vertex -0.0472261 -0.00924518 -0.65191
endloop
endfacet
facet normal -0.992655 -0.078444 -0.092098
outer loop
vertex -0.0472261 -0.00924518 -0.65191
vertex -0.0480396 -0.00608045 -0.645838
vertex -0.0483691 0.00479537 -0.65155
endloop
endfacet
facet normal -0.967241 0.147636 -0.206513
outer loop
vertex -0.0475556 0.00163063 -0.657622
vertex -0.0483691 0.00479537 -0.65155
vertex -0.0456068 0.0155619 -0.656791
endloop
endfacet
facet normal -0.879184 0.364 -0.307473
outer loop
vertex -0.0447933 0.0123971 -0.662863
vertex -0.0456068 0.0155619 -0.656791
vertex -0.0399332 0.0255226 -0.661222
endloop
endfacet
facet normal -0.73414 0.556842 -0.388542
outer loop
vertex -0.0391197 0.0223579 -0.667294
vertex -0.0399332 0.0255226 -0.661222
vertex -0.0317159 0.0340306 -0.664555
endloop
endfacet
facet normal -0.541491 0.713625 -0.44444
outer loop
vertex -0.0309024 0.0308659 -0.670627
vertex -0.0317159 0.0340306 -0.664555
vertex -0.0214862 0.0405351 -0.666574
endloop
endfacet
facet normal -0.313737 0.824153 -0.47153
outer loop
vertex -0.0206727 0.0373704 -0.672647
vertex -0.0214862 0.0405351 -0.666574
vertex -0.00990741 0.0446141 -0.667149
endloop
endfacet
facet normal -0.0657008 0.881251 -0.468059
outer loop
vertex -0.00909389 0.0414494 -0.673222
vertex -0.00990741 0.0446141 -0.667149
vertex 0.00308248 0.042839 -0.672315
endloop
endfacet
facet normal -0.313737 0.824153 -0.47153
outer loop
vertex -0.00909389 0.0414494 -0.673222
vertex -0.0206727 0.0373704 -0.672647
vertex -0.00990741 0.0446141 -0.667149
endloop
endfacet
facet normal -0.0657008 0.881251 -0.468059
outer loop
vertex 0.00226897 0.0460037 -0.666242
vertex 0.00308248 0.042839 -0.672315
vertex -0.00990741 0.0446141 -0.667149
endloop
endfacet
facet normal 0.186578 0.881251 -0.434263
outer loop
vertex 0.00226897 0.0460037 -0.666242
vertex 0.0150683 0.0414494 -0.669985
vertex 0.00308248 0.042839 -0.672315
endloop
endfacet
facet normal 0.186578 0.881251 -0.434263
outer loop
vertex 0.00226897 0.0460037 -0.666242
vertex 0.0142548 0.0446141 -0.663912
vertex 0.0150683 0.0414494 -0.669985
endloop
endfacet
facet normal 0.426783 0.824153 -0.372328
outer loop
vertex 0.0150683 0.0414494 -0.669985
vertex 0.0142548 0.0446141 -0.663912
vertex 0.0252741 0.0405351 -0.66031
endloop
endfacet
facet normal 0.639376 0.713625 -0.286248
outer loop
vertex 0.0260876 0.0373704 -0.666383
vertex 0.0252741 0.0405351 -0.66031
vertex 0.0346116 0.0340306 -0.655669
endloop
endfacet
facet normal 0.81052 0.556842 -0.181615
outer loop
vertex 0.0354251 0.0308659 -0.661742
vertex 0.0346116 0.0340306 -0.655669
vertex 0.0416619 0.0255226 -0.650291
endloop
endfacet
facet normal 0.929112 0.364 -0.0652297
outer loop
vertex 0.0424754 0.0223579 -0.656364
vertex 0.0416619 0.0255226 -0.650291
vertex 0.0459691 0.0155619 -0.644523
endloop
endfacet
facet normal 0.987492 0.147636 0.0553477
outer loop
vertex 0.0467827 0.0123971 -0.650596
vertex 0.0459691 0.0155619 -0.644523
vertex 0.0480682 0.00163063 -0.644812
endloop
endfacet
facet normal 0.929112 0.364 -0.0652297
outer loop
vertex 0.0467827 0.0123971 -0.650596
vertex 0.0424754 0.0223579 -0.656364
vertex 0.0459691 0.0155619 -0.644523
endloop
endfacet
facet normal 0.987492 0.147636 0.0553477
outer loop
vertex 0.0459691 0.0155619 -0.644523
vertex 0.0472547 0.00479537 -0.63874
vertex 0.0480682 0.00163063 -0.644812
endloop
endfacet
facet normal 0.981896 -0.0784437 0.172418
outer loop
vertex 0.0480682 0.00163063 -0.644812
vertex 0.0472547 0.00479537 -0.63874
vertex 0.0462469 -0.00924518 -0.639389
endloop
endfacet
facet normal 0.981896 -0.0784437 0.172418
outer loop
vertex 0.0462469 -0.00924518 -0.639389
vertex 0.0472547 0.00479537 -0.63874
vertex 0.0454334 -0.00608045 -0.633316
endloop
endfacet
facet normal 0.912685 -0.299308 0.278248
outer loop
vertex 0.0406249 -0.016361 -0.628602
vertex 0.0462469 -0.00924518 -0.639389
vertex 0.0454334 -0.00608045 -0.633316
endloop
endfacet
facet normal 0.912685 -0.299308 0.278248
outer loop
vertex 0.0406249 -0.016361 -0.628602
vertex 0.0414385 -0.0195257 -0.634675
vertex 0.0462469 -0.00924518 -0.639389
endloop
endfacet
facet normal 0.784304 -0.500851 0.366082
outer loop
vertex 0.0406249 -0.016361 -0.628602
vertex 0.0331397 -0.0253799 -0.624905
vertex 0.0414385 -0.0195257 -0.634675
endloop
endfacet
facet normal 0.784304 -0.500851 0.366082
outer loop
vertex 0.0414385 -0.0195257 -0.634675
vertex 0.0331397 -0.0253799 -0.624905
vertex 0.0339533 -0.0285446 -0.630978
endloop
endfacet
facet normal 0.605095 -0.669925 0.430187
outer loop
vertex 0.0339533 -0.0285446 -0.630978
vertex 0.0331397 -0.0253799 -0.624905
vertex 0.0234639 -0.0325516 -0.622464
endloop
endfacet
facet normal 0.605095 -0.669925 0.430187
outer loop
vertex 0.0242774 -0.0357164 -0.628536
vertex 0.0339533 -0.0285446 -0.630978
vertex 0.0234639 -0.0325516 -0.622464
endloop
endfacet
facet normal 0.81052 0.556842 -0.181615
outer loop
vertex 0.0354251 0.0308659 -0.661742
vertex 0.0416619 0.0255226 -0.650291
vertex 0.0424754 0.0223579 -0.656364
endloop
endfacet
facet normal 0.639376 0.713625 -0.286248
outer loop
vertex 0.0354251 0.0308659 -0.661742
vertex 0.0260876 0.0373704 -0.666383
vertex 0.0346116 0.0340306 -0.655669
endloop
endfacet
facet normal 0.426783 0.824153 -0.372328
outer loop
vertex 0.0260876 0.0373704 -0.666383
vertex 0.0150683 0.0414494 -0.669985
vertex 0.0252741 0.0405351 -0.66031
endloop
endfacet
facet normal -0.541491 0.713625 -0.44444
outer loop
vertex -0.0206727 0.0373704 -0.672647
vertex -0.0309024 0.0308659 -0.670627
vertex -0.0214862 0.0405351 -0.666574
endloop
endfacet
facet normal -0.73414 0.556842 -0.388542
outer loop
vertex -0.0309024 0.0308659 -0.670627
vertex -0.0391197 0.0223579 -0.667294
vertex -0.0317159 0.0340306 -0.664555
endloop
endfacet
facet normal -0.879184 0.364 -0.307473
outer loop
vertex -0.0391197 0.0223579 -0.667294
vertex -0.0447933 0.0123971 -0.662863
vertex -0.0399332 0.0255226 -0.661222
endloop
endfacet
facet normal -0.967241 0.147636 -0.206513
outer loop
vertex -0.0447933 0.0123971 -0.662863
vertex -0.0475556 0.00163063 -0.657622
vertex -0.0456068 0.0155619 -0.656791
endloop
endfacet
facet normal -0.992655 -0.078444 -0.092098
outer loop
vertex -0.0475556 0.00163063 -0.657622
vertex -0.0472261 -0.00924518 -0.65191
vertex -0.0483691 0.00479537 -0.65155
endloop
endfacet
facet normal 0.601311 -0.672717 0.431135
outer loop
vertex 0.0242774 -0.0357164 -0.628536
vertex 0.0234639 -0.0325516 -0.622464
vertex 0.0207951 -0.0345116 -0.6218
endloop
endfacet
facet normal 0.775187 -0.511676 0.370502
outer loop
vertex 0.0216086 -0.0376764 -0.627872
vertex 0.0207951 -0.0345116 -0.6218
vertex 0.0195126 -0.0401295 -0.626875
endloop
endfacet
facet normal 0.601311 -0.672717 0.431135
outer loop
vertex 0.0216086 -0.0376764 -0.627872
vertex 0.0242774 -0.0357164 -0.628536
vertex 0.0207951 -0.0345116 -0.6218
endloop
endfacet
facet normal 0.775187 -0.511676 0.370502
outer loop
vertex 0.0207951 -0.0345116 -0.6218
vertex 0.0186991 -0.0369647 -0.620802
vertex 0.0195126 -0.0401295 -0.626875
endloop
endfacet
facet normal 0.902812 -0.319739 0.287572
outer loop
vertex 0.0195126 -0.0401295 -0.626875
vertex 0.0186991 -0.0369647 -0.620802
vertex 0.0173029 -0.0397634 -0.619531
endloop
endfacet
facet normal 0.976256 -0.108648 0.187403
outer loop
vertex 0.0181164 -0.0429281 -0.625603
vertex 0.0173029 -0.0397634 -0.619531
vertex 0.0175028 -0.0459063 -0.624133
endloop
endfacet
facet normal 0.902812 -0.319739 0.287572
outer loop
vertex 0.0181164 -0.0429281 -0.625603
vertex 0.0195126 -0.0401295 -0.626875
vertex 0.0173029 -0.0397634 -0.619531
endloop
endfacet
facet normal 0.976256 -0.108648 0.187403
outer loop
vertex 0.0173029 -0.0397634 -0.619531
vertex 0.0166893 -0.0427415 -0.618061
vertex 0.0175028 -0.0459063 -0.624133
endloop
endfacet
facet normal 0.991146 0 0.132776
outer loop
vertex 0.0175028 -0.0459063 -0.624133
vertex 0.0166893 -0.0427415 -0.618061
vertex 0.0174958 -0.0460084 -0.624081
endloop
endfacet
facet normal 0.991146 0 0.132776
outer loop
vertex 0.0174958 -0.0460084 -0.624081
vertex 0.0166893 -0.0427415 -0.618061
vertex 0.0166823 -0.0428437 -0.618008
endloop
endfacet
facet normal -0.0609342 -0.888476 0.45486
outer loop
vertex 0.0174958 -0.0460084 -0.624081
vertex 0.0166823 -0.0428437 -0.618008
vertex 0.00382496 -0.0460084 -0.625912
endloop
endfacet
facet normal -0.0609342 -0.888476 0.45486
outer loop
vertex 0.00382496 -0.0460084 -0.625912
vertex 0.0166823 -0.0428437 -0.618008
vertex 0.00301145 -0.0428437 -0.61984
endloop
endfacet
facet normal -0.991146 0 -0.132776
outer loop
vertex 0.00382496 -0.0460084 -0.625912
vertex 0.00301145 -0.0428437 -0.61984
vertex 0.00445112 -0.0368785 -0.630587
endloop
endfacet
facet normal -0.991146 0 -0.132776
outer loop
vertex 0.00445112 -0.0368785 -0.630587
vertex 0.00301145 -0.0428437 -0.61984
vertex 0.00363761 -0.0337138 -0.624514
endloop
endfacet
facet normal -0.242692 0.846585 -0.473703
outer loop
vertex 0.00445112 -0.0368785 -0.630587
vertex 0.00363761 -0.0337138 -0.624514
vertex 0.0131893 -0.0310394 -0.624628
endloop
endfacet
facet normal -0.480029 0.749949 -0.455136
outer loop
vertex 0.0140028 -0.0342042 -0.630701
vertex 0.0131893 -0.0310394 -0.624628
vertex 0.0218123 -0.0263136 -0.625936
endloop
endfacet
facet normal -0.685548 0.603925 -0.406569
outer loop
vertex 0.0226258 -0.0294784 -0.632008
vertex 0.0218123 -0.0263136 -0.625936
vertex 0.028939 -0.0198491 -0.62835
endloop
endfacet
facet normal -0.845948 0.417982 -0.331154
outer loop
vertex 0.0297525 -0.0230138 -0.634423
vertex 0.028939 -0.0198491 -0.62835
vertex 0.0349116 -0.0152362 -0.637785
endloop
endfacet
facet normal -0.685548 0.603925 -0.406569
outer loop
vertex 0.0297525 -0.0230138 -0.634423
vertex 0.0226258 -0.0294784 -0.632008
vertex 0.028939 -0.0198491 -0.62835
endloop
endfacet
facet normal -0.845948 0.417982 -0.331154
outer loop
vertex 0.028939 -0.0198491 -0.62835
vertex 0.0340981 -0.0120714 -0.631712
vertex 0.0349116 -0.0152362 -0.637785
endloop
endfacet
facet normal -0.950548 0.204384 -0.233851
outer loop
vertex 0.0349116 -0.0152362 -0.637785
vertex 0.0340981 -0.0120714 -0.631712
vertex 0.0377616 -0.00665881 -0.641873
endloop
endfacet
facet normal -0.950548 0.204384 -0.233851
outer loop
vertex 0.0377616 -0.00665881 -0.641873
vertex 0.0340981 -0.0120714 -0.631712
vertex 0.0369481 -0.00349407 -0.6358
endloop
endfacet
facet normal -0.99237 -0.0224802 -0.121225
outer loop
vertex 0.0373036 0.00531689 -0.640345
vertex 0.0377616 -0.00665881 -0.641873
vertex 0.0369481 -0.00349407 -0.6358
endloop
endfacet
facet normal -0.99237 -0.0224802 -0.121225
outer loop
vertex 0.0373036 0.00531689 -0.640345
vertex 0.0381172 0.00215216 -0.646417
vertex 0.0377616 -0.00665881 -0.641873
endloop
endfacet
facet normal -0.96874 -0.248078 -0.000490694
outer loop
vertex 0.0373036 0.00531689 -0.640345
vertex 0.0351386 0.0137805 -0.645045
vertex 0.0381172 0.00215216 -0.646417
endloop
endfacet
facet normal -0.96874 -0.248078 -0.000490694
outer loop
vertex 0.0381172 0.00215216 -0.646417
vertex 0.0351386 0.0137805 -0.645045
vertex 0.0359521 0.0106158 -0.651118
endloop
endfacet
facet normal -0.881235 -0.457144 0.120185
outer loop
vertex 0.0359521 0.0106158 -0.651118
vertex 0.0351386 0.0137805 -0.645045
vertex 0.0314116 0.0181731 -0.655665
endloop
endfacet
facet normal -0.881235 -0.457144 0.120185
outer loop
vertex 0.0314116 0.0181731 -0.655665
vertex 0.0351386 0.0137805 -0.645045
vertex 0.0305981 0.0213379 -0.649592
endloop
endfacet
facet normal -0.735527 -0.636168 0.233002
outer loop
vertex 0.0247935 0.0243258 -0.659758
vertex 0.0305981 0.0213379 -0.649592
vertex 0.02398 0.0274905 -0.653685
endloop
endfacet
facet normal -0.541297 -0.773185 0.330426
outer loop
vertex 0.0165347 0.0286678 -0.663127
vertex 0.02398 0.0274905 -0.653685
vertex 0.0157212 0.0318326 -0.657054
endloop
endfacet
facet normal -0.3114 -0.859167 0.406033
outer loop
vertex 0.00718065 0.030913 -0.66555
vertex 0.0157212 0.0318326 -0.657054
vertex 0.00636713 0.0340777 -0.659478
endloop
endfacet
facet normal -0.0609342 -0.888476 0.45486
outer loop
vertex -0.00346503 0.0340777 -0.660795
vertex 0.00718065 0.030913 -0.66555
vertex 0.00636713 0.0340777 -0.659478
endloop
endfacet
facet normal -0.0609342 -0.888476 0.45486
outer loop
vertex -0.00346503 0.0340777 -0.660795
vertex -0.00265152 0.030913 -0.666867
vertex 0.00718065 0.030913 -0.66555
endloop
endfacet
facet normal 0.193552 -0.859167 0.473677
outer loop
vertex -0.00346503 0.0340777 -0.660795
vertex -0.0123136 0.0286678 -0.666992
vertex -0.00265152 0.030913 -0.666867
endloop
endfacet
facet normal 0.193552 -0.859167 0.473677
outer loop
vertex -0.00346503 0.0340777 -0.660795
vertex -0.0131271 0.0318326 -0.660919
vertex -0.0123136 0.0286678 -0.666992
endloop
endfacet
facet normal 0.435243 -0.773185 0.461246
outer loop
vertex -0.0123136 0.0286678 -0.666992
vertex -0.0131271 0.0318326 -0.660919
vertex -0.0211679 0.0243258 -0.665915
endloop
endfacet
facet normal 0.435243 -0.773185 0.461246
outer loop
vertex -0.0211679 0.0243258 -0.665915
vertex -0.0131271 0.0318326 -0.660919
vertex -0.0219814 0.0274905 -0.659842
endloop
endfacet
facet normal 0.648267 -0.636168 0.418378
outer loop
vertex -0.02863 0.0181731 -0.663708
vertex -0.0219814 0.0274905 -0.659842
vertex -0.0294435 0.0213379 -0.657636
endloop
endfacet
facet normal 0.818531 -0.457144 0.347889
outer loop
vertex -0.0342071 0.0106158 -0.660517
vertex -0.0294435 0.0213379 -0.657636
vertex -0.0350206 0.0137805 -0.654444
endloop
endfacet
facet normal 0.934712 -0.248078 0.2545
outer loop
vertex -0.0375331 0.00215216 -0.656552
vertex -0.0350206 0.0137805 -0.654444
vertex -0.0383466 0.00531689 -0.650479
endloop
endfacet
facet normal 0.989287 -0.0224802 0.144243
outer loop
vertex -0.0391996 -0.00349407 -0.646001
vertex -0.0375331 0.00215216 -0.656552
vertex -0.0383466 0.00531689 -0.650479
endloop
endfacet
facet normal 0.989287 -0.0224802 0.144243
outer loop
vertex -0.0391996 -0.00349407 -0.646001
vertex -0.0383861 -0.00665881 -0.652074
vertex -0.0375331 0.00215216 -0.656552
endloop
endfacet
facet normal 0.978582 0.204384 0.0245803
outer loop
vertex -0.0391996 -0.00349407 -0.646001
vertex -0.0367126 -0.0152362 -0.64738
vertex -0.0383861 -0.00665881 -0.652074
endloop
endfacet
facet normal 0.978582 0.204384 0.0245803
outer loop
vertex -0.0391996 -0.00349407 -0.646001
vertex -0.0375261 -0.0120714 -0.641307
vertex -0.0367126 -0.0152362 -0.64738
endloop
endfacet
facet normal 0.903281 0.417982 -0.0968228
outer loop
vertex -0.0367126 -0.0152362 -0.64738
vertex -0.0375261 -0.0120714 -0.641307
vertex -0.0326203 -0.0230138 -0.642778
endloop
endfacet
facet normal 0.903281 0.417982 -0.0968228
outer loop
vertex -0.0326203 -0.0230138 -0.642778
vertex -0.0375261 -0.0120714 -0.641307
vertex -0.0334338 -0.0198491 -0.636706
endloop
endfacet
facet normal 0.768386 0.603925 -0.211796
outer loop
vertex -0.0263804 -0.0294784 -0.638573
vertex -0.0334338 -0.0198491 -0.636706
vertex -0.0271939 -0.0263136 -0.632501
endloop
endfacet
facet normal 0.582896 0.749949 -0.312744
outer loop
vertex -0.0184056 -0.0342042 -0.635042
vertex -0.0271939 -0.0263136 -0.632501
vertex -0.0192192 -0.0310394 -0.62897
endloop
endfacet
facet normal 0.358814 0.846585 -0.393124
outer loop
vertex -0.00922075 -0.0368785 -0.632418
vertex -0.0192192 -0.0310394 -0.62897
vertex -0.0100343 -0.0337138 -0.626345
endloop
endfacet
facet normal 0.358814 0.846585 -0.393124
outer loop
vertex -0.00922075 -0.0368785 -0.632418
vertex -0.0184056 -0.0342042 -0.635042
vertex -0.0192192 -0.0310394 -0.62897
endloop
endfacet
facet normal 0.582896 0.749949 -0.312744
outer loop
vertex -0.0184056 -0.0342042 -0.635042
vertex -0.0263804 -0.0294784 -0.638573
vertex -0.0271939 -0.0263136 -0.632501
endloop
endfacet
facet normal 0.768386 0.603925 -0.211796
outer loop
vertex -0.0263804 -0.0294784 -0.638573
vertex -0.0326203 -0.0230138 -0.642778
vertex -0.0334338 -0.0198491 -0.636706
endloop
endfacet
facet normal 0.934712 -0.248078 0.2545
outer loop
vertex -0.0375331 0.00215216 -0.656552
vertex -0.0342071 0.0106158 -0.660517
vertex -0.0350206 0.0137805 -0.654444
endloop
endfacet
facet normal 0.818531 -0.457144 0.347889
outer loop
vertex -0.0342071 0.0106158 -0.660517
vertex -0.02863 0.0181731 -0.663708
vertex -0.0294435 0.0213379 -0.657636
endloop
endfacet
facet normal 0.648267 -0.636168 0.418378
outer loop
vertex -0.02863 0.0181731 -0.663708
vertex -0.0211679 0.0243258 -0.665915
vertex -0.0219814 0.0274905 -0.659842
endloop
endfacet
facet normal -0.3114 -0.859167 0.406033
outer loop
vertex 0.00718065 0.030913 -0.66555
vertex 0.0165347 0.0286678 -0.663127
vertex 0.0157212 0.0318326 -0.657054
endloop
endfacet
facet normal -0.541297 -0.773185 0.330426
outer loop
vertex 0.0165347 0.0286678 -0.663127
vertex 0.0247935 0.0243258 -0.659758
vertex 0.02398 0.0274905 -0.653685
endloop
endfacet
facet normal -0.735527 -0.636168 0.233002
outer loop
vertex 0.0247935 0.0243258 -0.659758
vertex 0.0314116 0.0181731 -0.655665
vertex 0.0305981 0.0213379 -0.649592
endloop
endfacet
facet normal -0.480029 0.749949 -0.455136
outer loop
vertex 0.0226258 -0.0294784 -0.632008
vertex 0.0140028 -0.0342042 -0.630701
vertex 0.0218123 -0.0263136 -0.625936
endloop
endfacet
facet normal -0.242692 0.846585 -0.473703
outer loop
vertex 0.0140028 -0.0342042 -0.630701
vertex 0.00445112 -0.0368785 -0.630587
vertex 0.0131893 -0.0310394 -0.624628
endloop
endfacet
facet normal 0.991146 0 0.132776
outer loop
vertex -0.00922075 -0.0368785 -0.632418
vertex -0.0100343 -0.0337138 -0.626345
vertex -0.00984691 -0.0460084 -0.627744
endloop
endfacet
facet normal 0.991146 0 0.132776
outer loop
vertex -0.00984691 -0.0460084 -0.627744
vertex -0.0100343 -0.0337138 -0.626345
vertex -0.0106604 -0.0428437 -0.621671
endloop
endfacet
facet normal -0.0609342 -0.888476 0.45486
outer loop
vertex -0.00984691 -0.0460084 -0.627744
vertex -0.0106604 -0.0428437 -0.621671
vertex -0.0235178 -0.0460084 -0.629575
endloop
endfacet
facet normal -0.0609342 -0.888476 0.45486
outer loop
vertex -0.0235178 -0.0460084 -0.629575
vertex -0.0106604 -0.0428437 -0.621671
vertex -0.0243313 -0.0428437 -0.623503
endloop
endfacet
facet normal 0.117968 -0.45893 -0.880606
outer loop
vertex -0.00984691 -0.0460084 -0.627744
vertex -0.0235178 -0.0460084 -0.629575
vertex -0.0165978 -0.0447833 -0.629287
endloop
endfacet
facet normal 0.117969 -0.458927 -0.880607
outer loop
vertex -0.0155277 -0.044658 -0.629209
vertex -0.00984691 -0.0460084 -0.627744
vertex -0.0165978 -0.0447833 -0.629287
endloop
endfacet
facet normal 0.11797 -0.458925 -0.880608
outer loop
vertex -0.0155277 -0.044658 -0.629209
vertex -0.0145133 -0.0442901 -0.629265
vertex -0.00984691 -0.0460084 -0.627744
endloop
endfacet
facet normal 0.11797 -0.458925 -0.880608
outer loop
vertex -0.00984691 -0.0460084 -0.627744
vertex -0.0145133 -0.0442901 -0.629265
vertex -0.0136239 -0.0437064 -0.62945
endloop
endfacet
facet normal 0.11797 -0.458924 -0.880609
outer loop
vertex -0.0129205 -0.042945 -0.629752
vertex -0.00984691 -0.0460084 -0.627744
vertex -0.0136239 -0.0437064 -0.62945
endloop
endfacet
facet normal 0.117963 -0.45893 -0.880606
outer loop
vertex -0.0129205 -0.042945 -0.629752
vertex -0.0124493 -0.0420583 -0.630151
vertex -0.00984691 -0.0460084 -0.627744
endloop
endfacet
facet normal 0.117974 -0.458924 -0.880608
outer loop
vertex -0.00984691 -0.0460084 -0.627744
vertex -0.0124493 -0.0420583 -0.630151
vertex -0.0122443 -0.0411068 -0.63062
endloop
endfacet
facet normal 0.117975 -0.458931 -0.880605
outer loop
vertex -0.00922075 -0.0368785 -0.632418
vertex -0.0122443 -0.0411068 -0.63062
vertex -0.0123188 -0.0401552 -0.631126
endloop
endfacet
facet normal 0.117966 -0.458924 -0.880609
outer loop
vertex -0.0126683 -0.0392685 -0.631634
vertex -0.00922075 -0.0368785 -0.632418
vertex -0.0123188 -0.0401552 -0.631126
endloop
endfacet
facet normal 0.117967 -0.458924 -0.880609
outer loop
vertex -0.0126683 -0.0392685 -0.631634
vertex -0.0132673 -0.0385071 -0.632111
vertex -0.00922075 -0.0368785 -0.632418
endloop
endfacet
facet normal 0.117967 -0.458925 -0.880609
outer loop
vertex -0.00922075 -0.0368785 -0.632418
vertex -0.0132673 -0.0385071 -0.632111
vertex -0.0140766 -0.0379225 -0.632525
endloop
endfacet
facet normal 0.11797 -0.45894 -0.880601
outer loop
vertex -0.0150406 -0.0375555 -0.632845
vertex -0.00922075 -0.0368785 -0.632418
vertex -0.0140766 -0.0379225 -0.632525
endloop
endfacet
facet normal 0.117969 -0.458925 -0.880608
outer loop
vertex -0.0150406 -0.0375555 -0.632845
vertex -0.0184056 -0.0342042 -0.635042
vertex -0.00922075 -0.0368785 -0.632418
endloop
endfacet
facet normal 0.117968 -0.458926 -0.880608
outer loop
vertex -0.0150406 -0.0375555 -0.632845
vertex -0.0160935 -0.0374302 -0.633051
vertex -0.0184056 -0.0342042 -0.635042
endloop
endfacet
facet normal 0.117969 -0.458925 -0.880608
outer loop
vertex -0.0184056 -0.0342042 -0.635042
vertex -0.0160935 -0.0374302 -0.633051
vertex -0.0171636 -0.0375555 -0.633129
endloop
endfacet
facet normal 0.117961 -0.458928 -0.880608
outer loop
vertex -0.018178 -0.0379225 -0.633074
vertex -0.0184056 -0.0342042 -0.635042
vertex -0.0171636 -0.0375555 -0.633129
endloop
endfacet
facet normal 0.117972 -0.458927 -0.880607
outer loop
vertex -0.018178 -0.0379225 -0.633074
vertex -0.0190675 -0.0385071 -0.632888
vertex -0.0184056 -0.0342042 -0.635042
endloop
endfacet
facet normal 0.117969 -0.458927 -0.880607
outer loop
vertex -0.0184056 -0.0342042 -0.635042
vertex -0.0190675 -0.0385071 -0.632888
vertex -0.0264877 -0.0376764 -0.634315
endloop
endfacet
facet normal 0.117965 -0.458926 -0.880608
outer loop
vertex -0.0263804 -0.0294784 -0.638573
vertex -0.0264877 -0.0376764 -0.634315
vertex -0.0288876 -0.0357164 -0.635658
endloop
endfacet
facet normal 0.117968 -0.458927 -0.880608
outer loop
vertex -0.0375797 -0.0285446 -0.64056
vertex -0.0263804 -0.0294784 -0.638573
vertex -0.0288876 -0.0357164 -0.635658
endloop
endfacet
facet normal 0.117968 -0.458927 -0.880607
outer loop
vertex -0.0375797 -0.0285446 -0.64056
vertex -0.0326203 -0.0230138 -0.642778
vertex -0.0263804 -0.0294784 -0.638573
endloop
endfacet
facet normal 0.117968 -0.458927 -0.880607
outer loop
vertex -0.0375797 -0.0285446 -0.64056
vertex -0.0438279 -0.0195257 -0.646098
vertex -0.0326203 -0.0230138 -0.642778
endloop
endfacet
facet normal 0.117968 -0.458926 -0.880608
outer loop
vertex -0.0326203 -0.0230138 -0.642778
vertex -0.0438279 -0.0195257 -0.646098
vertex -0.0367126 -0.0152362 -0.64738
endloop
endfacet
facet normal 0.117968 -0.458926 -0.880608
outer loop
vertex -0.0367126 -0.0152362 -0.64738
vertex -0.0438279 -0.0195257 -0.646098
vertex -0.0472261 -0.00924518 -0.65191
endloop
endfacet
facet normal 0.117969 -0.458927 -0.880608
outer loop
vertex -0.0383861 -0.00665881 -0.652074
vertex -0.0472261 -0.00924518 -0.65191
vertex -0.0475556 0.00163063 -0.657622
endloop
endfacet
facet normal 0.117969 -0.458926 -0.880608
outer loop
vertex -0.0375331 0.00215216 -0.656552
vertex -0.0475556 0.00163063 -0.657622
vertex -0.0447933 0.0123971 -0.662863
endloop
endfacet
facet normal 0.117968 -0.458926 -0.880608
outer loop
vertex -0.0342071 0.0106158 -0.660517
vertex -0.0447933 0.0123971 -0.662863
vertex -0.0391197 0.0223579 -0.667294
endloop
endfacet
facet normal 0.117968 -0.458926 -0.880608
outer loop
vertex -0.02863 0.0181731 -0.663708
vertex -0.0391197 0.0223579 -0.667294
vertex -0.0309024 0.0308659 -0.670627
endloop
endfacet
facet normal 0.117968 -0.458927 -0.880608
outer loop
vertex -0.0211679 0.0243258 -0.665915
vertex -0.0309024 0.0308659 -0.670627
vertex -0.0206727 0.0373704 -0.672647
endloop
endfacet
facet normal 0.117969 -0.458926 -0.880608
outer loop
vertex -0.0123136 0.0286678 -0.666992
vertex -0.0206727 0.0373704 -0.672647
vertex -0.00909389 0.0414494 -0.673222
endloop
endfacet
facet normal 0.117968 -0.458926 -0.880608
outer loop
vertex -0.00265152 0.030913 -0.666867
vertex -0.00909389 0.0414494 -0.673222
vertex 0.00308248 0.042839 -0.672315
endloop
endfacet
facet normal 0.117969 -0.458926 -0.880608
outer loop
vertex 0.00718065 0.030913 -0.66555
vertex 0.00308248 0.042839 -0.672315
vertex 0.0150683 0.0414494 -0.669985
endloop
endfacet
facet normal 0.117968 -0.458926 -0.880608
outer loop
vertex 0.0165347 0.0286678 -0.663127
vertex 0.0150683 0.0414494 -0.669985
vertex 0.0260876 0.0373704 -0.666383
endloop
endfacet
facet normal 0.117968 -0.458927 -0.880608
outer loop
vertex 0.0247935 0.0243258 -0.659758
vertex 0.0260876 0.0373704 -0.666383
vertex 0.0354251 0.0308659 -0.661742
endloop
endfacet
facet normal 0.117969 -0.458926 -0.880608
outer loop
vertex 0.0314116 0.0181731 -0.655665
vertex 0.0354251 0.0308659 -0.661742
vertex 0.0424754 0.0223579 -0.656364
endloop
endfacet
facet normal 0.117969 -0.458926 -0.880608
outer loop
vertex 0.0359521 0.0106158 -0.651118
vertex 0.0424754 0.0223579 -0.656364
vertex 0.0467827 0.0123971 -0.650596
endloop
endfacet
facet normal 0.117968 -0.458926 -0.880608
outer loop
vertex 0.0381172 0.00215216 -0.646417
vertex 0.0467827 0.0123971 -0.650596
vertex 0.0480682 0.00163063 -0.644812
endloop
endfacet
facet normal 0.117968 -0.458927 -0.880608
outer loop
vertex 0.0377616 -0.00665881 -0.641873
vertex 0.0480682 0.00163063 -0.644812
vertex 0.0462469 -0.00924518 -0.639389
endloop
endfacet
facet normal 0.117969 -0.458926 -0.880608
outer loop
vertex 0.0349116 -0.0152362 -0.637785
vertex 0.0462469 -0.00924518 -0.639389
vertex 0.0414385 -0.0195257 -0.634675
endloop
endfacet
facet normal 0.117969 -0.458927 -0.880607
outer loop
vertex 0.0297525 -0.0230138 -0.634423
vertex 0.0414385 -0.0195257 -0.634675
vertex 0.0339533 -0.0285446 -0.630978
endloop
endfacet
facet normal 0.117969 -0.458927 -0.880607
outer loop
vertex 0.0226258 -0.0294784 -0.632008
vertex 0.0339533 -0.0285446 -0.630978
vertex 0.0242774 -0.0357164 -0.628536
endloop
endfacet
facet normal 0.117971 -0.458926 -0.880607
outer loop
vertex 0.0216086 -0.0376764 -0.627872
vertex 0.0226258 -0.0294784 -0.632008
vertex 0.0242774 -0.0357164 -0.628536
endloop
endfacet
facet normal 0.117968 -0.458926 -0.880608
outer loop
vertex 0.0216086 -0.0376764 -0.627872
vertex 0.0140028 -0.0342042 -0.630701
vertex 0.0226258 -0.0294784 -0.632008
endloop
endfacet
facet normal 0.117968 -0.458927 -0.880608
outer loop
vertex 0.0216086 -0.0376764 -0.627872
vertex 0.0140745 -0.0385071 -0.628449
vertex 0.0140028 -0.0342042 -0.630701
endloop
endfacet
facet normal 0.117967 -0.458924 -0.880609
outer loop
vertex 0.0216086 -0.0376764 -0.627872
vertex 0.0146744 -0.0392685 -0.627972
vertex 0.0140745 -0.0385071 -0.628449
endloop
endfacet
facet normal 0.117968 -0.458926 -0.880608
outer loop
vertex 0.0216086 -0.0376764 -0.627872
vertex 0.0195126 -0.0401295 -0.626875
vertex 0.0146744 -0.0392685 -0.627972
endloop
endfacet
facet normal 0.117969 -0.458923 -0.880609
outer loop
vertex 0.0146744 -0.0392685 -0.627972
vertex 0.0195126 -0.0401295 -0.626875
vertex 0.015023 -0.0401552 -0.627463
endloop
endfacet
facet normal 0.117968 -0.458932 -0.880605
outer loop
vertex 0.015023 -0.0401552 -0.627463
vertex 0.0195126 -0.0401295 -0.626875
vertex 0.0150974 -0.0411068 -0.626957
endloop
endfacet
facet normal 0.117967 -0.458929 -0.880607
outer loop
vertex 0.0150974 -0.0411068 -0.626957
vertex 0.0195126 -0.0401295 -0.626875
vertex 0.0181164 -0.0429281 -0.625603
endloop
endfacet
facet normal 0.117968 -0.458932 -0.880605
outer loop
vertex 0.0148924 -0.0420583 -0.626488
vertex 0.0181164 -0.0429281 -0.625603
vertex 0.0144223 -0.042945 -0.626089
endloop
endfacet
facet normal 0.117971 -0.458924 -0.880609
outer loop
vertex 0.0148924 -0.0420583 -0.626488
vertex 0.0150974 -0.0411068 -0.626957
vertex 0.0181164 -0.0429281 -0.625603
endloop
endfacet
facet normal 0.117967 -0.458923 -0.88061
outer loop
vertex -0.0235108 -0.0459063 -0.629628
vertex -0.0186147 -0.0442901 -0.629814
vertex -0.0235178 -0.0460084 -0.629575
endloop
endfacet
facet normal 0.117967 -0.458925 -0.880609
outer loop
vertex -0.0235108 -0.0459063 -0.629628
vertex -0.0194241 -0.0437064 -0.630227
vertex -0.0186147 -0.0442901 -0.629814
endloop
endfacet
facet normal 0.117967 -0.458924 -0.880609
outer loop
vertex -0.0235108 -0.0459063 -0.629628
vertex -0.020024 -0.042945 -0.630704
vertex -0.0194241 -0.0437064 -0.630227
endloop
endfacet
facet normal 0.117968 -0.458926 -0.880608
outer loop
vertex -0.0235108 -0.0459063 -0.629628
vertex -0.0237159 -0.0429281 -0.631207
vertex -0.020024 -0.042945 -0.630704
endloop
endfacet
facet normal 0.117968 -0.458932 -0.880605
outer loop
vertex -0.020024 -0.042945 -0.630704
vertex -0.0237159 -0.0429281 -0.631207
vertex -0.0203725 -0.0420583 -0.631213
endloop
endfacet
facet normal 0.117966 -0.458924 -0.88061
outer loop
vertex -0.0203725 -0.0420583 -0.631213
vertex -0.0237159 -0.0429281 -0.631207
vertex -0.020447 -0.0411068 -0.631718
endloop
endfacet
facet normal 0.117969 -0.458929 -0.880607
outer loop
vertex -0.020447 -0.0411068 -0.631718
vertex -0.0237159 -0.0429281 -0.631207
vertex -0.0247282 -0.0401295 -0.632801
endloop
endfacet
facet normal 0.117969 -0.458923 -0.880609
outer loop
vertex -0.020242 -0.0401552 -0.632187
vertex -0.0247282 -0.0401295 -0.632801
vertex -0.0197719 -0.0392685 -0.632586
endloop
endfacet
facet normal 0.117968 -0.458932 -0.880605
outer loop
vertex -0.020242 -0.0401552 -0.632187
vertex -0.020447 -0.0411068 -0.631718
vertex -0.0247282 -0.0401295 -0.632801
endloop
endfacet
facet normal 0.117969 -0.458926 -0.880608
outer loop
vertex -0.0247282 -0.0401295 -0.632801
vertex -0.0264877 -0.0376764 -0.634315
vertex -0.0197719 -0.0392685 -0.632586
endloop
endfacet
facet normal 0.11797 -0.458924 -0.880609
outer loop
vertex -0.0197719 -0.0392685 -0.632586
vertex -0.0264877 -0.0376764 -0.634315
vertex -0.0190675 -0.0385071 -0.632888
endloop
endfacet
facet normal 0.117968 -0.458926 -0.880608
outer loop
vertex 0.0181164 -0.0429281 -0.625603
vertex 0.0175028 -0.0459063 -0.624133
vertex 0.0144223 -0.042945 -0.626089
endloop
endfacet
facet normal 0.11797 -0.458924 -0.880609
outer loop
vertex 0.0144223 -0.042945 -0.626089
vertex 0.0175028 -0.0459063 -0.624133
vertex 0.0137179 -0.0437064 -0.625787
endloop
endfacet
facet normal 0.11797 -0.458925 -0.880608
outer loop
vertex 0.0137179 -0.0437064 -0.625787
vertex 0.0175028 -0.0459063 -0.624133
vertex 0.0128284 -0.0442901 -0.625602
endloop
endfacet
facet normal 0.117971 -0.458923 -0.880609
outer loop
vertex 0.0128284 -0.0442901 -0.625602
vertex 0.0175028 -0.0459063 -0.624133
vertex 0.0174958 -0.0460084 -0.624081
endloop
endfacet
facet normal 0.117969 -0.458927 -0.880607
outer loop
vertex 0.011814 -0.044658 -0.625546
vertex 0.0174958 -0.0460084 -0.624081
vertex 0.0107439 -0.0447833 -0.625624
endloop
endfacet
facet normal 0.11797 -0.458925 -0.880608
outer loop
vertex 0.011814 -0.044658 -0.625546
vertex 0.0128284 -0.0442901 -0.625602
vertex 0.0174958 -0.0460084 -0.624081
endloop
endfacet
facet normal 0.117968 -0.45893 -0.880606
outer loop
vertex 0.0174958 -0.0460084 -0.624081
vertex 0.00382496 -0.0460084 -0.625912
vertex 0.0107439 -0.0447833 -0.625624
endloop
endfacet
facet normal 0.117968 -0.458927 -0.880607
outer loop
vertex 0.0107439 -0.0447833 -0.625624
vertex 0.00382496 -0.0460084 -0.625912
vertex 0.00969101 -0.044658 -0.62583
endloop
endfacet
facet normal 0.117967 -0.458925 -0.880608
outer loop
vertex 0.00969101 -0.044658 -0.62583
vertex 0.00382496 -0.0460084 -0.625912
vertex 0.00872707 -0.0442901 -0.626151
endloop
endfacet
facet normal 0.117967 -0.458925 -0.880609
outer loop
vertex 0.00872707 -0.0442901 -0.626151
vertex 0.00382496 -0.0460084 -0.625912
vertex 0.00791769 -0.0437064 -0.626564
endloop
endfacet
facet normal 0.117967 -0.458924 -0.880609
outer loop
vertex 0.00791769 -0.0437064 -0.626564
vertex 0.00382496 -0.0460084 -0.625912
vertex 0.00731873 -0.042945 -0.627041
endloop
endfacet
facet normal 0.117973 -0.45893 -0.880605
outer loop
vertex 0.00731873 -0.042945 -0.627041
vertex 0.00382496 -0.0460084 -0.625912
vertex 0.00696921 -0.0420583 -0.62755
endloop
endfacet
facet normal 0.117963 -0.458924 -0.88061
outer loop
vertex 0.00696921 -0.0420583 -0.62755
vertex 0.00382496 -0.0460084 -0.625912
vertex 0.00689471 -0.0411068 -0.628056
endloop
endfacet
facet normal 0.117969 -0.458927 -0.880608
outer loop
vertex 0.00689471 -0.0411068 -0.628056
vertex 0.00382496 -0.0460084 -0.625912
vertex 0.00445112 -0.0368785 -0.630587
endloop
endfacet
facet normal 0.117971 -0.458924 -0.880609
outer loop
vertex 0.00709973 -0.0401552 -0.628524
vertex 0.00445112 -0.0368785 -0.630587
vertex 0.00757088 -0.0392685 -0.628923
endloop
endfacet
facet normal 0.117961 -0.458931 -0.880607
outer loop
vertex 0.00709973 -0.0401552 -0.628524
vertex 0.00689471 -0.0411068 -0.628056
vertex 0.00445112 -0.0368785 -0.630587
endloop
endfacet
facet normal 0.117968 -0.458925 -0.880608
outer loop
vertex 0.0101781 -0.0375555 -0.629467
vertex 0.00445112 -0.0368785 -0.630587
vertex 0.0140028 -0.0342042 -0.630701
endloop
endfacet
facet normal 0.117968 -0.458925 -0.880608
outer loop
vertex 0.0112482 -0.0374302 -0.629389
vertex 0.0140028 -0.0342042 -0.630701
vertex 0.0123012 -0.0375555 -0.629182
endloop
endfacet
facet normal 0.117969 -0.458926 -0.880608
outer loop
vertex 0.0112482 -0.0374302 -0.629389
vertex 0.0101781 -0.0375555 -0.629467
vertex 0.0140028 -0.0342042 -0.630701
endloop
endfacet
facet normal 0.117969 -0.458927 -0.880607
outer loop
vertex 0.0226258 -0.0294784 -0.632008
vertex 0.0297525 -0.0230138 -0.634423
vertex 0.0339533 -0.0285446 -0.630978
endloop
endfacet
facet normal 0.117969 -0.458926 -0.880608
outer loop
vertex 0.0349116 -0.0152362 -0.637785
vertex 0.0414385 -0.0195257 -0.634675
vertex 0.0297525 -0.0230138 -0.634423
endloop
endfacet
facet normal 0.117969 -0.458926 -0.880608
outer loop
vertex 0.0349116 -0.0152362 -0.637785
vertex 0.0377616 -0.00665881 -0.641873
vertex 0.0462469 -0.00924518 -0.639389
endloop
endfacet
facet normal 0.117968 -0.458927 -0.880608
outer loop
vertex 0.0377616 -0.00665881 -0.641873
vertex 0.0381172 0.00215216 -0.646417
vertex 0.0480682 0.00163063 -0.644812
endloop
endfacet
facet normal 0.117969 -0.458927 -0.880607
outer loop
vertex 0.0359521 0.0106158 -0.651118
vertex 0.0467827 0.0123971 -0.650596
vertex 0.0381172 0.00215216 -0.646417
endloop
endfacet
facet normal 0.117969 -0.458926 -0.880608
outer loop
vertex 0.0314116 0.0181731 -0.655665
vertex 0.0424754 0.0223579 -0.656364
vertex 0.0359521 0.0106158 -0.651118
endloop
endfacet
facet normal 0.117968 -0.458926 -0.880608
outer loop
vertex 0.0314116 0.0181731 -0.655665
vertex 0.0247935 0.0243258 -0.659758
vertex 0.0354251 0.0308659 -0.661742
endloop
endfacet
facet normal 0.117968 -0.458927 -0.880608
outer loop
vertex 0.0247935 0.0243258 -0.659758
vertex 0.0165347 0.0286678 -0.663127
vertex 0.0260876 0.0373704 -0.666383
endloop
endfacet
facet normal 0.117969 -0.458926 -0.880608
outer loop
vertex 0.0165347 0.0286678 -0.663127
vertex 0.00718065 0.030913 -0.66555
vertex 0.0150683 0.0414494 -0.669985
endloop
endfacet
facet normal 0.117968 -0.458927 -0.880608
outer loop
vertex 0.00718065 0.030913 -0.66555
vertex -0.00265152 0.030913 -0.666867
vertex 0.00308248 0.042839 -0.672315
endloop
endfacet
facet normal 0.117968 -0.458926 -0.880608
outer loop
vertex -0.0123136 0.0286678 -0.666992
vertex -0.00909389 0.0414494 -0.673222
vertex -0.00265152 0.030913 -0.666867
endloop
endfacet
facet normal 0.117968 -0.458927 -0.880608
outer loop
vertex -0.0123136 0.0286678 -0.666992
vertex -0.0211679 0.0243258 -0.665915
vertex -0.0206727 0.0373704 -0.672647
endloop
endfacet
facet normal 0.117969 -0.458926 -0.880608
outer loop
vertex -0.0211679 0.0243258 -0.665915
vertex -0.02863 0.0181731 -0.663708
vertex -0.0309024 0.0308659 -0.670627
endloop
endfacet
facet normal 0.117968 -0.458926 -0.880608
outer loop
vertex -0.02863 0.0181731 -0.663708
vertex -0.0342071 0.0106158 -0.660517
vertex -0.0391197 0.0223579 -0.667294
endloop
endfacet
facet normal 0.117968 -0.458927 -0.880608
outer loop
vertex -0.0342071 0.0106158 -0.660517
vertex -0.0375331 0.00215216 -0.656552
vertex -0.0447933 0.0123971 -0.662863
endloop
endfacet
facet normal 0.117969 -0.458927 -0.880608
outer loop
vertex -0.0375331 0.00215216 -0.656552
vertex -0.0383861 -0.00665881 -0.652074
vertex -0.0475556 0.00163063 -0.657622
endloop
endfacet
facet normal 0.117968 -0.458926 -0.880608
outer loop
vertex -0.0383861 -0.00665881 -0.652074
vertex -0.0367126 -0.0152362 -0.64738
vertex -0.0472261 -0.00924518 -0.65191
endloop
endfacet
facet normal 0.117969 -0.458926 -0.880608
outer loop
vertex -0.0263804 -0.0294784 -0.638573
vertex -0.0184056 -0.0342042 -0.635042
vertex -0.0264877 -0.0376764 -0.634315
endloop
endfacet
facet normal 0.117968 -0.458927 -0.880608
outer loop
vertex -0.00922075 -0.0368785 -0.632418
vertex -0.00984691 -0.0460084 -0.627744
vertex -0.0122443 -0.0411068 -0.63062
endloop
endfacet
facet normal 0.117965 -0.458927 -0.880608
outer loop
vertex 0.0140745 -0.0385071 -0.628449
vertex 0.0132651 -0.0379225 -0.628862
vertex 0.0140028 -0.0342042 -0.630701
endloop
endfacet
facet normal 0.117976 -0.458928 -0.880606
outer loop
vertex 0.0140028 -0.0342042 -0.630701
vertex 0.0132651 -0.0379225 -0.628862
vertex 0.0123012 -0.0375555 -0.629182
endloop
endfacet
facet normal 0.117965 -0.45894 -0.880601
outer loop
vertex 0.0101781 -0.0375555 -0.629467
vertex 0.00916379 -0.0379225 -0.629411
vertex 0.00445112 -0.0368785 -0.630587
endloop
endfacet
facet normal 0.11797 -0.458925 -0.880608
outer loop
vertex 0.00445112 -0.0368785 -0.630587
vertex 0.00916379 -0.0379225 -0.629411
vertex 0.00827428 -0.0385071 -0.629226
endloop
endfacet
facet normal 0.11797 -0.458924 -0.880608
outer loop
vertex 0.00757088 -0.0392685 -0.628923
vertex 0.00445112 -0.0368785 -0.630587
vertex 0.00827428 -0.0385071 -0.629226
endloop
endfacet
facet normal 0.117967 -0.458925 -0.880608
outer loop
vertex -0.0186147 -0.0442901 -0.629814
vertex -0.0176507 -0.044658 -0.629493
vertex -0.0235178 -0.0460084 -0.629575
endloop
endfacet
facet normal 0.117968 -0.458927 -0.880607
outer loop
vertex -0.0235178 -0.0460084 -0.629575
vertex -0.0176507 -0.044658 -0.629493
vertex -0.0165978 -0.0447833 -0.629287
endloop
endfacet
endsolid
